<?xml version="1.0" encoding="utf-8"?>
<!-- Generator: Adobe Illustrator 19.2.1, SVG Export Plug-In . SVG Version: 6.00 Build 0)  -->
<svg version="1.1"
	 id="svg2" inkscape:version="0.91 r13725" sodipodi:docname="logo_inkscape.svg" xmlns:cc="http://creativecommons.org/ns#" xmlns:dc="http://purl.org/dc/elements/1.1/" xmlns:inkscape="http://www.inkscape.org/namespaces/inkscape" xmlns:rdf="http://www.w3.org/1999/02/22-rdf-syntax-ns#" xmlns:sodipodi="http://sodipodi.sourceforge.net/DTD/sodipodi-0.dtd" xmlns:svg="http://www.w3.org/2000/svg"
	 xmlns="http://www.w3.org/2000/svg" xmlns:xlink="http://www.w3.org/1999/xlink" x="0px" y="0px" viewBox="0 0 100 100"
	 style="enable-background:new 0 0 100 100;" xml:space="preserve">
<style type="text/css">
	.st0{fill:#EE1C22;}
</style>
<path id="path3405" class="st0" d="M23.7,4L22,5c-0.9,0.5-3.5,1.3-5.7,1.8l-4,0.9L12,9.8l-0.2,2.2l-1.2-0.2l-1.2-0.2L7.8,14
	l-1.5,2.5l0.4,2.6l0.4,2.6l-0.6,1l-0.6,1l-0.8-0.5l-0.8-0.5l-0.9,2.6l-0.9,2.6l0.5,4l0.5,4l-1.2,0.9l-1.2,0.9L0.6,41L0,44.3l0.9,0.5
	l0.9,0.5v3.9v3.9l-0.8,0.5l-0.8,0.5v2.4v2.4l1.7,2.1l1.7,2.1l-0.5,5l-0.5,5l2.2,2l2.2,2l-0.5,2l-0.5,2l0.9,2.5l0.9,2.5L9,86.7
	l1.5,0.5v1.5v1.5l2.2,1.4c1.2,0.8,4.2,2.1,6.6,2.8l4.4,1.4l4.4,0.1c2.4,0,7.7-0.3,11.7-0.8l7.2-0.9l0.3-0.7l0.3-0.7h1.6
	c0.9,0,4.2,0.7,7.4,1.6l5.8,1.6l4,0c2.2,0,7.3-0.4,11.3-0.9l7.2-0.9l0.4-0.7c0.2-0.4,1.4-0.9,2.6-1.2l2.2-0.6V91
	c0-0.4,0.9-2.2,2.1-3.9l2.1-3.2l-0.5-1.4l-0.5-1.4l1.7-1.8l1.7-1.8l-0.1-3.8L96.7,70l1.2-2.3l1.2-2.3l-0.5-5.2L98,54.9h1h1l-0.5-3.8
	c-0.3-2.1-0.5-6.4-0.5-9.6l0.1-5.8l-0.8-0.5l-0.8-0.5v-5.1v-5.1l-1.2-1l-1.2-1v-3.2v-3.2l-1.7-1.4l-1.7-1.4l-0.3-1.9L91,9.7l-1.4-1
	c-0.8-0.6-2.9-1.8-4.7-2.7l-3.3-1.7l-10-0.1l-10-0.1L60,4.9c-0.8,0.4-3.3,1.2-5.4,1.7l-3.8,0.9l-3.2-1.6l-3.2-1.6L34,4.1L23.7,4z
	 M25.8,5.9h2h2v0.6c0,0.4-1,1-2.2,1.5l-2.2,0.9l2.8,0c1.5,0,5.6-0.2,9-0.5l6.2-0.6l0.7,2.4l0.7,2.4l-0.4,5l-0.4,5h-1.4h-1.4l-1,3.2
	l-1,3.2l0.8,1.5l0.8,1.5l-0.5,2.5l-0.5,2.5H39h-1.1v3.6v3.6l0.8,0.5l0.8,0.5v4v4h-0.8h-0.8v3.4V60l1.3,1.4l1.3,1.4l-0.1,2.7
	c-0.1,1.5-0.1,3.9-0.2,5.4l-0.1,2.7l1.9,1.5l1.9,1.5L43.6,80l-0.2,3.2l1.3,2l1.3,2h1.2c0.7,0,1.2,0.2,1.2,0.5s-0.4,1.1-0.8,2
	l-0.8,1.5l-3,0.8c-1.7,0.4-4.6,0.8-6.6,0.9s-4.2,0.1-4.8,0l-1.2-0.1l5.2-2.6l5.2-2.6l0.6-2.2l0.6-2.2l-0.7-0.4l-0.7-0.4l-1.1,2.2
	l-1.1,2.2l-4.8,2.6l-4.8,2.6l0.2,0.8l0.2,0.8l-0.6-0.1c-0.3-0.1-1.5-0.2-2.6-0.4c-1.1-0.2-4-0.7-6.4-1.2L15.8,91l-1.4-1.2L13,88.5
	v-1.1c0-0.6,0.1-1.1,0.3-1.1s2.7,1.1,5.7,2.4s6,2.4,6.7,2.4H27l-1-0.9c-0.5-0.5-4.7-2.7-9.2-4.8l-8.3-3.9l0.1-0.8
	c0-0.5,0.1-1.5,0.2-2.4L9,76.7h0.8c0.5,0,3,1.4,5.6,3.2c2.6,1.8,5.1,3.2,5.6,3.2h0.8l0-1l0-1l-8.3-5.4l-8.3-5.4v-4.4
	c0-2.4,0.1-4.4,0.3-4.4c0.1,0,2.7,2,5.6,4.4l5.4,4.4h1.1h1V69v-1.2l-1.4-1.2c-0.8-0.6-3.6-2.9-6.3-5s-5.4-4.4-6-5l-1.2-1.1L4,50.8
	l0.3-4.7h0.8c0.4,0,2.9,1.8,5.4,4c2.5,2.2,5,4,5.6,4H17l-0.1-1.4l-0.1-1.4l-6-5.2l-6-5.2l0.5-5.2c0.3-2.9,0.6-5.3,0.7-5.4
	c0.1-0.1,2.3,1.6,4.9,3.8c2.6,2.2,5.2,4,5.8,4l1,0v-1.5v-1.5L14,31.9c-2.1-1.7-4.3-3.7-4.9-4.3L8,26.5l0.5-2.1
	c0.3-1.1,0.6-2.9,0.7-3.8c0.1-1,0.4-2,0.7-2.3l0.5-0.5l3.6,2.5l3.6,2.5h1.2c0.7,0,1.4-0.3,1.6-0.7l0.4-0.7l-3.9-2.7l-3.9-2.7
	l0.6-2.8c0.3-1.5,0.8-2.9,1.1-3.2l0.4-0.4l3.3,1.3c1.8,0.7,4,1.3,4.9,1.3H25v-0.7c0-0.4-1.2-1.3-2.6-2l-2.6-1.3l3-1.2L25.8,5.9z
	 M65,5.9c0.9,0,1.9,0.3,2.2,0.6L67.8,7l-2.7,1l-2.7,1l3.2,0c1.8,0,5.8-0.3,9.1-0.6l5.8-0.6l1,2.6l1,2.6h0.7h0.7l-0.4-1.4
	c-0.2-0.8-0.7-2-1-2.8L82,7.5l0.7,0c0.4,0,1.9,0.7,3.3,1.6l2.6,1.6v1.5v1.5l1.6,1.5l1.6,1.5v3v3l1.4,1.4l1.4,1.4l0.2,5.1l0.2,5.1
	l0.6,1l0.6,1L96,50.9l-0.1,13.3l-0.8,2.2l-0.8,2.2v3.6v3.6l-1.6,1.6L91,79.1v2.3c0,1.3-0.2,2.9-0.5,3.6L90,86.3h-1.1h-1.1l-0.5,1.6
	l-0.5,1.6l-2.6,1.2l-2.6,1.2l-6,0.8c-3.3,0.4-6.3,0.8-6.7,0.8l-0.7,0l0.5-0.8c0.3-0.4,2.5-1.7,5.1-2.9c2.5-1.2,4.9-2.5,5.2-3.1
	c0.3-0.5,0.6-1.8,0.6-2.8l0-1.8H79h-0.7l-0.5,2l-0.5,2l-5.6,2.9l-5.6,2.9l0.4,0.7l0.4,0.7l-0.7-0.1C66,93.4,64,93.1,62,92.8
	c-2-0.3-5.2-1-7.1-1.5l-3.5-1l-0.4-1.1c-0.2-0.6-0.3-1.5-0.2-1.9l0.3-0.8l5.5,2.4c3,1.3,5.8,2.4,6.2,2.4s0.7-0.3,0.7-0.7v-0.7
	l-8.8-4.1L46,81.6l0-1.5c0-0.8,0.3-2,0.7-2.6l0.7-1.1l5.2,3.4c2.8,1.8,5.6,3.4,6.1,3.4h0.9v-0.8v-0.8l-8.8-5.8L42,69.8l0.5-1.2
	c0.3-0.7,0.4-2.6,0.4-4.3l-0.2-3.1l4.8,3.7c2.6,2,5,4.1,5.3,4.5c0.3,0.4,1,0.8,1.6,0.8h1.2l-0.1-1.4l-0.1-1.4l-7-5.7l-7.1-5.7
	l0.4-4.7c0.2-2.6,0.5-4.9,0.7-5c0.2-0.2,2.5,1.5,5.3,3.8l5,4.1h1h1V53V52L49,46.9c-3.2-2.8-6.1-5.3-6.4-5.6L42,40.8l0.9-5.4l0.9-5.4
	l4.8,4l4.8,4h1.1h1.1l0-1.4l0-1.4L50.3,31L45,26.7l0.5-1.3c0.3-0.7,0.7-2.7,1-4.4c0.2-1.7,0.7-3,0.9-3c0.3,0,2.1,1.1,4.1,2.4
	l3.6,2.4l1.4,0l1.4,0v-1v-1l-3.5-2.1l-3.5-2.1l0.3-3.3l0.3-3.3h0.6c0.3,0,2.2,0.5,4,1.2s3.9,1.2,4.5,1.2H62v-0.8v-0.8l-2-0.9
	c-1.1-0.5-2-1.1-2-1.4c0-0.3,1.2-0.9,2.7-1.5C62.2,6.3,64.1,5.9,65,5.9z M33.5,5.9l2.4,0l2.4,0l-1.6,0.7c-0.9,0.4-2.5,0.7-3.6,0.7
	l-2,0l1.2-0.8L33.5,5.9z M70.5,5.9h2.4h2.4l-1.2,0.8l-1.2,0.8h-2.4h-2.4l1.2-0.8L70.5,5.9z M45.2,7.5h0.7c0.4,0,1.3,0.7,2,1.5
	c0.7,0.8,1.3,1.9,1.3,2.4v0.9h-0.7c-0.4,0-1.3-0.6-2-1.3c-0.7-0.7-1.3-1.8-1.3-2.4V7.5z M39.4,10l-2.2,0.7c-1.2,0.4-5.3,1.6-9.2,2.8
	l-7,2.1v0.8v0.8l1.8,0c1,0,4.9-0.9,8.6-2l6.8-2l1.7,2.1l1.7,2.1l0.5-1.2l0.5-1.2L41,12.5L39.4,10z M76.9,10l-8.8,2.6l-8.8,2.6
	l-0.3,1l-0.3,1h1.5c0.8,0,4.6-0.9,8.3-2l6.8-2l1.8,2.2l1.8,2.2l0.5-1.3l0.5-1.3L79,13.4c-0.5-0.8-1.1-1.9-1.5-2.4L76.9,10z
	 M73.6,18.7l-9.4,4.9l-9.4,4.9v0.7V30H56c0.7,0,4.7-1.8,9-4l7.8-4l1.3,1.7l1.3,1.7l0.6-0.9l0.6-0.9l-0.8-1.4
	c-0.4-0.8-1.1-1.9-1.5-2.5L73.6,18.7z M35.9,18.8l-8.8,4.6l-8.8,4.6L18,29l-0.3,1h1c0.5,0,4.5-1.8,8.9-4l7.9-4l1,1.6
	c0.6,0.9,1.3,1.6,1.6,1.6h0.6v-1.5v-1.5l-1.4-1.7L35.9,18.8z M31.8,32.2L24,38l-7.8,5.8v1.2v1.2h1.1h1.1l6.6-5.2
	c3.6-2.9,7-5.2,7.4-5.2c0.4,0,1.5,0.4,2.4,0.9l1.6,0.9l-0.3-1.9l-0.3-1.9l-2.1-0.7L31.8,32.2z M69.2,32.4l-7.4,5.3
	c-4.1,2.9-7.7,5.7-8,6.2l-0.6,0.9l0.4,0.6c0.2,0.4,0.7,0.6,1.2,0.6c0.4,0,3-1.7,5.8-3.9c2.8-2.1,6-4.5,7.2-5.3l2.2-1.4l1.6,0.8
	l1.6,0.8l0.5-1.4l0.5-1.4l-1.4-1c-0.8-0.6-1.9-1-2.5-1H69.2z M35.5,47.7l-1.8,0l-1.8,0l-7.6,6.1l-7.6,6.1l-0.3,1.5L16.1,63h1.2h1.2
	l6.7-5.6l6.7-5.6l1.8-0.5l1.8-0.5v-1.5V47.7z M69.5,47.7l-7.8,6.1L54,59.9v1.6V63l1,0l1,0l7.2-6l7.2-6h1.1h1.1v-1.6v-1.6H71H69.5z
	 M36.3,61.2l-1,0.7c-0.6,0.4-4.5,3.6-8.8,7s-7.8,6.5-7.8,6.9c0,0.3,0.2,0.8,0.5,1.1c0.3,0.3,0.9,0.5,1.2,0.5c0.4,0,4.1-2.8,8.3-6.1
	l7.6-6.1v-2V61.2z M73.3,61.3l-4.9,3.9c-2.7,2.1-6.5,5.3-8.4,7l-3.5,3.1v1.1v1.1h1.2h1.2l7.2-6c4-3.3,7.4-6.4,7.7-6.9l0.5-0.9
	l-0.5-1.2L73.3,61.3z M38.7,73.2l-3,3.1C34,78,30.6,81,28,82.9l-4.6,3.4v0.8v0.8h0.9c0.5,0,3.7-2,7.1-4.4l6.3-4.4l0.5-1.3
	c0.3-0.7,0.5-2,0.5-3V73.2z M75.2,73.4l-1.7,2.3l-1.7,2.3l-5.7,4.2l-5.7,4.2l0.4,0.7c0.2,0.4,0.8,0.7,1.2,0.7s3.4-1.9,6.7-4.2l6-4.2
	l1-2.3l1-2.3L76,74.2L75.2,73.4z"/>
<path class="st0" d="M85.3,22.6c-4.7,0-8.5,11.8-8.5,26.3s3.8,26.3,8.5,26.3s8.5-11.8,8.5-26.3S90,22.6,85.3,22.6z M85.3,69
	c-3.6,0-6.5-9-6.5-20.1s2.9-20.1,6.5-20.1c3.6,0,6.5,9,6.5,20.1S88.9,69,85.3,69z"/>
</svg>
