<?xml version="1.0" encoding="utf-8"?>
<!-- Generator: Adobe Illustrator 19.2.1, SVG Export Plug-In . SVG Version: 6.00 Build 0)  -->
<svg version="1.1" id="Слой_1" xmlns="http://www.w3.org/2000/svg" xmlns:xlink="http://www.w3.org/1999/xlink" x="0px" y="0px"
	 viewBox="0 0 550 310" style="enable-background:new 0 0 550 310;" xml:space="preserve">
<style type="text/css">
	.st0{fill:url(#SVGID_1_);}
	.st1{display:none;opacity:0.5;fill:#00AA08;}
	.st2{display:none;}
	.st3{display:inline;fill:url(#SVGID_2_);}
	.st4{display:inline;fill:url(#SVGID_3_);}
	.st5{display:inline;fill:url(#SVGID_4_);}
	.st6{display:none;fill:url(#SVGID_5_);}
</style>
<linearGradient id="SVGID_1_" gradientUnits="userSpaceOnUse" x1="4.9767" y1="155" x2="545.0233" y2="155">
	<stop  offset="0" style="stop-color:#FF0000"/>
	<stop  offset="1" style="stop-color:#000000"/>
</linearGradient>
<path class="st0" d="M481.2,221.2c-12.8-1.9-12-9.1-11.5-11.4c3.1-6.2,2.3-13.1-5-15.6c-2.3-3.7-1.4-7.9,3.1-9.7
	c-5.6-2.7-7.5-7.3-5.4-9.7c2.4-3.7,2-6,0.5-7.8c-16.1-3.5-15.5-14.6-10.1-18.1c4.7-2.3,16-15.7,21.2-25.3c3.3-8.7-3.6-13.6-2-18.8
	c3.1-16.3,12.6-39.5,19.6-52.6c9.5-10,20.3-15.1,33.2-17.9c-0.1-0.2-0.1-0.3-0.2-0.5c-0.2-0.5-0.4-0.9-0.7-1.4
	c0-0.1-0.1-0.2-0.2-0.3c-0.4-0.8-0.9-1.9-1.4-2.7c-3.9-6.4-10.8-14.3-23-19.3h-0.3c-13.8-5-34.1-8.1-64.1-2.2
	c-2.7,0.5-5.5,1.1-8.5,2c-0.3,0.1-0.6,0.2-0.9,0.2h-0.3c-0.3,0-0.5,0.5-0.8,0.6c-13.1,4-28.2,10.9-39.6,20.5c-0.6,0.5-1.2,1-1.8,1.5
	c-9.2,8-27.6,24.4-57.4,34.7c-1.1,0.4-2.2,0.8-3.3,1.1c-2.3,0.7-4.6,1.5-7.1,2.1c-1.2,0.3-2.5,0.6-3.8,0.9
	c-3.3,0.8-6.8,1.6-10.4,2.2c-2.8,0.5-5.7,1-8.6,1.4c-1.4,0.2-2.9,0.3-4.4,0.4c-3.3,0.3-6.7,0.6-10.3,0.8c-1.1,0.1-2.3,0.1-3.5,0.1
	c-4.3,0.1-8.7,0.1-13.2-0.1c-1.9-0.1-3.8-0.1-5.7-0.2c-1.7-0.2-5.2-0.3-5.5-0.3C182.4,69.6,100.3,38,5,78.1
	c52.7-14.6,120-6.1,168.4,12.3c24.9,9.9,50.6,17.5,76.6,23.5v0.2c2,0.4,2.2,0.8,4.1,1.1c1.2,0.3,1.9,0.6,1.9,0.8v0
	c6,1,11.5,2,16.5,2.9c2.8,0.5,6.3,1,9.2,1.5c-3.2-0.3-6.1-0.7-9.4-1.1c-1.2-0.2-3.4-0.3-4.6-0.5c-3.6-0.5-5.8-1-11.8-1.6v0
	c-63-9.7-133.3-28.7-216,6c52.7-14.6,120.5-5.9,169,12.5c13.3,5.1,27.1,9.7,41.1,13.8v0.3c2,0.6,3.8,1.1,6,1.7c0.2,0,0,0.1,0,0.1
	v0.1c13,3.2,22.9,5.9,34.4,8.4c9.1,2.1,18.3,3.9,27.8,5.5c-1.4-0.2-3-0.4-4.3-0.5c-18.3-2.1-38.9-5.7-57.9-9.1v0
	c0-0.3-3-0.5-4.7-0.8c-0.6-0.1-1.3-0.2-1.3-0.3v0c-51-8.2-109-13.3-172.6,13.5c52.5-14.8,120-6.1,168.4,12.3
	c1.4,0.6,2.2,1.1,4.2,1.6v0.3c31,12.7,68.4,22,104.3,27.9c-13.3-1.4-26.7-3.6-41.3-6.2c-18.2-3.2-38-6.6-57-8.7v0.1
	c0-0.2-4-0.4-6-0.6v0.1c-42-4.1-87.3-2.5-136.4,18.2c41.8-11.6,92.4-8.6,136.4,2.4v0.1c1,0.3,0,0.7,6,1.1v0c6,2.1,14.7,4.5,22,7.2
	c1.2,0.5,2,0.9,3.2,1.4c10,3.9,19.8,7.5,30,10.8c0.1,0,0.1,0.1,0.1,0.1c0.2,0.1,0.3,0.1,0.5,0.2c5.8,1.9,11.6,3.6,17.4,5.3
	c1,0.3,2,0.6,3,0.9c6.3,1.7,12.6,3.4,18.9,4.9c0.2,0,0.3,0.1,0.5,0.1c6.5,1.5,13,2.9,19.5,4.3c0.3,0.1,0.6,0.1,1,0.2
	c6.3,1.3,12.6,2.4,19,3.5c-24.8-2.6-50.2-8.3-78.9-12.5c-18.3-2.7-37.3-4.8-56.3-5v0.1c-6,0-5-0.1-6-0.1v0.2
	c-32,0.2-65,5.2-100.1,20c31.4-8.6,68-9.1,102.7-4.2c3.4,0.5,6.8,1.1,10.1,1.7c11.5,2.1,22.7,4.6,33.3,7.7c0.2,0.1,0.5,0.1,0.7,0.2
	c3.8,1.1,7.5,2.3,11.2,3.5c3.1,1,6.2,2.1,9.2,3.2c81,31.9,89.6,39.7,150.6,32.2c12.6-1.4,23.9-4.5,34.7-8.8
	c8.1-3.1,15.9-6.8,23.3-11c6.4-3.5,12.3-7.4,19.3-11.5v-34.7l-0.1-1.5C541.6,222.9,529.8,216.5,481.2,221.2z"/>
<path class="st1" d="M524.5,35c-0.4,0.1-0.9,0.1-1.3,0.1h0.5c-9.4,0-25.4,8.4-29.7,13.8c-5,6.1-8.2,17.9-10.9,25.4
	c-1.8,5-3.7,10.3-4.6,15.6c-0.2,2.1-0.4,4.3-0.4,6.4c0.3,5.2,2.6,11.2,2.2,16.6c-0.1,1.8-0.6,3.5-1.5,5.1
	c-12.1,20.6-23.7,25.4-27.2,30.3c-0.2,0.9-0.2,1.6-0.2,2.5c-0.2,1.2-0.2,2.3-0.4,3.6c0.5,1.1,1.2,2.1,2.1,3.6
	c2.8,4.1,9.4,3.9,10.5,9.4c1.2,6.6-5.3,6.1-0.5,12.8c1.4,2,3,3.4,4.3,5.2c-2.8,0.2-4.4,3.2-4.1,6.1c0.7,4.8,4.7,3.6,6.8,7.1
	c4.1,7.1-6,14.9,3.5,20.3c2.4,1.3,5.2,1.7,8.1,1.8c2.8,0,5.6-0.2,8.3-0.2c6-0.1,12.9-0.6,19.8-0.7c6.8-0.1,13.6,0.3,19.3,2
	c3.3,0.9,5.4,2.3,7.2,4.2c2.6,2.1,4.5,4.7,5.9,7.7c0.8,1.1,1.6,2.1,2.6,3.3L525.3,35.1L524.5,35z"/>
<g class="st2">
	<linearGradient id="SVGID_2_" gradientUnits="userSpaceOnUse" x1="4.9767" y1="155" x2="545.0233" y2="155">
		<stop  offset="0" style="stop-color:#FF0000"/>
		<stop  offset="1" style="stop-color:#000000"/>
	</linearGradient>
	<path class="st3" d="M525.3,35.1l-0.8-0.1c0.2,0,0.4-0.1,0.6-0.1c-0.1-0.3-0.3-0.7-0.4-1c-0.2-0.5-0.4-0.9-0.7-1.4
		c0-0.1-0.1-0.2-0.2-0.3c-0.4-0.8-0.9-1.9-1.4-2.7c-3.9-6.4-10.8-14.3-23-19.3h-0.3c-13.8-5-34.1-8.1-64.1-2.2
		c-2.7,0.5-5.5,1.1-8.5,2c-0.3,0.1-0.6,0.2-0.9,0.2h-0.3c-0.3,0-0.5,0.5-0.8,0.6c-13.1,4-28.2,10.9-39.6,20.5
		c-0.6,0.5-1.2,1-1.8,1.5c-9.2,8-27.6,24.4-57.4,34.7c-1.1,0.4-2.2,0.8-3.3,1.1c-2.3,0.7-4.6,1.5-7.1,2.1c-1.2,0.3-2.5,0.6-3.8,0.9
		c-3.3,0.8-6.8,1.6-10.4,2.2c-2.8,0.5-5.7,1-8.6,1.4c-1.4,0.2-2.9,0.3-4.4,0.4c-3.3,0.3-6.7,0.6-10.3,0.8c-1.1,0.1-2.3,0.1-3.5,0.1
		c-4.3,0.1-8.7,0.1-13.2-0.1c-1.9-0.1-3.8-0.1-5.7-0.2c-1.7-0.2-5.2-0.3-5.5-0.3C182.4,69.6,100.3,38,5,78.1
		c52.7-14.6,120-6.1,168.4,12.3c24.9,9.9,50.6,17.5,76.6,23.5v0.2c2,0.4,2.2,0.8,4.1,1.1c1.2,0.3,1.9,0.6,1.9,0.8v0
		c6,1,11.5,2,16.5,2.9c2.8,0.5,6.3,1,9.2,1.5c-3.2-0.3-6.1-0.7-9.4-1.1c-1.2-0.2-3.4-0.3-4.6-0.5c-3.6-0.5-5.8-1-11.8-1.6v0
		c-63-9.7-133.3-28.7-216,6c52.7-14.6,120.5-5.9,169,12.5c13.3,5.1,27.1,9.7,41.1,13.8v0.3c2,0.6,3.8,1.1,6,1.7c0.2,0,0,0.1,0,0.1
		v0.1c13,3.2,22.9,5.9,34.4,8.4c9.1,2.1,18.3,3.9,27.8,5.5c-1.4-0.2-3-0.4-4.3-0.5c-18.3-2.1-38.9-5.7-57.9-9.1v0
		c0-0.3-3-0.5-4.7-0.8c-0.6-0.1-1.3-0.2-1.3-0.3v0c-51-8.2-109-13.3-172.6,13.5c52.5-14.8,120-6.1,168.4,12.3
		c1.4,0.6,2.2,1.1,4.2,1.6v0.3c31,12.7,68.4,22,104.3,27.9c-13.3-1.4-26.7-3.6-41.3-6.2c-18.2-3.2-38-6.6-57-8.7v0.1
		c0-0.2-4-0.4-6-0.6v0.1c-42-4.1-87.3-2.5-136.4,18.2c41.8-11.6,92.4-8.6,136.4,2.4v0.1c1,0.3,0,0.7,6,1.1v0c6,2.1,14.7,4.5,22,7.2
		c1.2,0.5,2,0.9,3.2,1.4c10,3.9,19.8,7.5,30,10.8c0.1,0,0.1,0.1,0.1,0.1c0.2,0.1,0.3,0.1,0.5,0.2c5.8,1.9,11.6,3.6,17.4,5.3
		c1,0.3,2,0.6,3,0.9c6.3,1.7,12.6,3.4,18.9,4.9c0.2,0,0.3,0.1,0.5,0.1c6.5,1.5,13,2.9,19.5,4.3c0.3,0.1,0.6,0.1,1,0.2
		c6.3,1.3,12.6,2.4,19,3.5c-24.8-2.6-50.2-8.3-78.9-12.5c-18.3-2.7-37.3-4.8-56.3-5v0.1c-6,0-5-0.1-6-0.1v0.2
		c-32,0.2-65,5.2-100.1,20c31.4-8.6,68-9.1,102.7-4.2c3.4,0.5,6.8,1.1,10.1,1.7c11.5,2.1,22.7,4.6,33.3,7.7c0.2,0.1,0.5,0.1,0.7,0.2
		c3.8,1.1,7.5,2.3,11.2,3.5c3.1,1,6.2,2.1,9.2,3.2c81,31.9,89.6,39.7,150.6,32.2c12.6-1.4,23.9-4.5,34.7-8.8
		c8.1-3.1,15.9-6.8,23.3-11c6.4-3.5,12.3-7.4,19.3-11.5v-34.7L525.3,35.1z M524.1,35c-0.3,0-0.6,0.1-0.8,0.1
		C523.5,35.1,523.8,35.1,524.1,35z"/>
	<linearGradient id="SVGID_3_" gradientUnits="userSpaceOnUse" x1="525.337" y1="35.0751" x2="525.3508" y2="35.0751">
		<stop  offset="0" style="stop-color:#FF0000"/>
		<stop  offset="1" style="stop-color:#000000"/>
	</linearGradient>
	<path class="st4" d="M525.4,35.1C525.3,35.1,525.3,35.1,525.4,35.1L525.4,35.1C525.3,35.1,525.3,35.1,525.4,35.1z"/>
	<linearGradient id="SVGID_4_" gradientUnits="userSpaceOnUse" x1="525.162" y1="34.933" x2="525.3508" y2="34.933">
		<stop  offset="0" style="stop-color:#FF0000"/>
		<stop  offset="1" style="stop-color:#000000"/>
	</linearGradient>
	<path class="st5" d="M525.3,35.1c0,0,0-0.3,0-0.3c-0.1,0-0.1,0-0.2,0C525.2,35,525.3,35.1,525.3,35.1z"/>
</g>
<linearGradient id="SVGID_5_" gradientUnits="userSpaceOnUse" x1="4.9767" y1="155" x2="545.0233" y2="155">
	<stop  offset="0" style="stop-color:#FF0000"/>
	<stop  offset="1" style="stop-color:#000000"/>
</linearGradient>
<path class="st6" d="M545,271.4v-34.7c-1-1.1-1.9-2.2-2.6-3.3c-1.4-3-3.4-5.6-5.9-7.7c-1.8-1.8-4-3.3-7.2-4.2
	c-5.7-1.7-12.5-2-19.3-2c-6.9,0.1-13.8,0.6-19.8,0.7c-2.7,0-5.5,0.2-8.3,0.2c-2.9-0.1-5.7-0.5-8.1-1.8c-9.4-5.3,0.6-13.2-3.5-20.3
	c-2.1-3.6-6.1-2.3-6.8-7.1c-0.4-2.8,1.2-5.9,4.1-6.1c-1.2-1.8-2.9-3.2-4.3-5.2c-4.8-6.8,1.8-6.2,0.5-12.8c-1.1-5.5-7.7-5.3-10.5-9.4
	c-0.9-1.4-1.6-2.5-2.1-3.6c0.2-1.2,0.2-2.3,0.4-3.6c0-0.9,0-1.6,0.2-2.5c3.6-4.8,15.1-9.6,27.2-30.3c0.9-1.6,1.4-3.3,1.5-5.1
	c0.4-5.4-2-11.4-2.2-16.6c0-2.1,0.2-4.3,0.4-6.4c0.9-5.3,2.8-10.7,4.6-15.6c2.7-7.5,5.9-19.3,10.9-25.4c4.3-5.3,20.3-13.8,29.7-13.8
	h-0.5c0.7,0,1.4-0.1,2.1-0.3c0,0,0,0.3,0,0.3c0,0,0,0,0,0c-0.2,0-0.4-0.8-0.6-1.2c-0.2-0.5-0.4-0.9-0.7-1.4c0-0.1-0.1-0.2-0.2-0.3
	c-0.4-0.8-0.9-1.9-1.4-2.7c-3.9-6.4-10.8-14.3-23-19.3h-0.3c-13.8-5-34.1-8.1-64.1-2.2c-2.7,0.5-5.5,1.1-8.5,2
	c-0.3,0.1-0.6,0.2-0.9,0.2h-0.3c-0.3,0-0.5,0.5-0.8,0.6c-13.1,4-28.2,10.9-39.6,20.5c-0.6,0.5-1.2,1-1.8,1.5
	c-9.2,8-27.6,24.4-57.4,34.7c-1.1,0.4-2.2,0.8-3.3,1.1c-2.3,0.7-4.6,1.5-7.1,2.1c-1.2,0.3-2.5,0.6-3.8,0.9
	c-3.3,0.8-6.8,1.6-10.4,2.2c-2.8,0.5-5.7,1-8.6,1.4c-1.4,0.2-2.9,0.3-4.4,0.4c-3.3,0.3-6.7,0.6-10.3,0.8c-1.1,0.1-2.3,0.1-3.5,0.1
	c-4.3,0.1-8.7,0.1-13.2-0.1c-1.9-0.1-3.8-0.1-5.7-0.2c-1.7-0.2-5.2-0.3-5.5-0.3C182.4,69.6,100.3,38,5,78.1
	c52.7-14.6,120-6.1,168.4,12.3c24.9,9.9,50.6,17.5,76.6,23.5v0.2c2,0.4,2.2,0.8,4.1,1.1c1.2,0.3,1.9,0.6,1.9,0.8v0
	c6,1,11.5,2,16.5,2.9c2.8,0.5,6.3,1,9.2,1.5c-3.2-0.3-6.1-0.7-9.4-1.1c-1.2-0.2-3.4-0.3-4.6-0.5c-3.6-0.5-5.8-1-11.8-1.6v0
	c-63-9.7-133.3-28.7-216,6c52.7-14.6,120.5-5.9,169,12.5c13.3,5.1,27.1,9.7,41.1,13.8v0.3c2,0.6,3.8,1.1,6,1.7c0.2,0,0,0.1,0,0.1
	v0.1c13,3.2,22.9,5.9,34.4,8.4c9.1,2.1,18.3,3.9,27.8,5.5c-1.4-0.2-3-0.4-4.3-0.5c-18.3-2.1-38.9-5.7-57.9-9.1v0
	c0-0.3-3-0.5-4.7-0.8c-0.6-0.1-1.3-0.2-1.3-0.3v0c-51-8.2-109-13.3-172.6,13.5c52.5-14.8,120-6.1,168.4,12.3
	c1.4,0.6,2.2,1.1,4.2,1.6v0.3c31,12.7,68.4,22,104.3,27.9c-13.3-1.4-26.7-3.6-41.3-6.2c-18.2-3.2-38-6.6-57-8.7v0.1
	c0-0.2-4-0.4-6-0.6v0.1c-42-4.1-87.3-2.5-136.4,18.2c41.8-11.6,92.4-8.6,136.4,2.4v0.1c1,0.3,0,0.7,6,1.1v0c6,2.1,14.7,4.5,22,7.2
	c1.2,0.5,2,0.9,3.2,1.4c10,3.9,19.8,7.5,30,10.8c0.1,0,0.1,0.1,0.1,0.1c0.2,0.1,0.3,0.1,0.5,0.2c5.8,1.9,11.6,3.6,17.4,5.3
	c1,0.3,2,0.6,3,0.9c6.3,1.7,12.6,3.4,18.9,4.9c0.2,0,0.3,0.1,0.5,0.1c6.5,1.5,13,2.9,19.5,4.3c0.3,0.1,0.6,0.1,1,0.2
	c6.3,1.3,12.6,2.4,19,3.5c-24.8-2.6-50.2-8.3-78.9-12.5c-18.3-2.7-37.3-4.8-56.3-5v0.1c-6,0-5-0.1-6-0.1v0.2
	c-32,0.2-65,5.2-100.1,20c31.4-8.6,68-9.1,102.7-4.2c3.4,0.5,6.8,1.1,10.1,1.7c11.5,2.1,22.7,4.6,33.3,7.7c0.2,0.1,0.5,0.1,0.7,0.2
	c3.8,1.1,7.5,2.3,11.2,3.5c3.1,1,6.2,2.1,9.2,3.2c81,31.9,89.6,39.7,150.6,32.2c12.6-1.4,23.9-4.5,34.7-8.8
	c8.1-3.1,15.9-6.8,23.3-11C532.1,279.4,538,275.5,545,271.4z"/>
</svg>
