<?xml version="1.0" encoding="utf-8"?>
<!-- Generator: Adobe Illustrator 19.2.1, SVG Export Plug-In . SVG Version: 6.00 Build 0)  -->
<svg version="1.1" id="Слой_1" xmlns="http://www.w3.org/2000/svg" xmlns:xlink="http://www.w3.org/1999/xlink" x="0px" y="0px"
	 viewBox="0 0 100 1.5" style="enable-background:new 0 0 100 1.5;" xml:space="preserve">
<style type="text/css">
	.st0{fill-rule:evenodd;clip-rule:evenodd;fill:#FFFFFF;}
</style>
<path class="st0" d="M97.8,0.1c-1.3-0.2-1.8-0.2-2.9,0.4h-0.8c0-0.3-0.1-0.5-0.3-0.5c-0.1,0-0.2,0.2-0.3,0.5H6.5
	c0-0.3-0.1-0.5-0.3-0.5C6.1,0.1,6,0.3,5.9,0.5H5.1C4-0.1,3.5-0.1,2.2,0.1L0,0.7c0.7,0.2,1.4,0.4,2.2,0.7C3.4,1.7,4,1.5,5.1,0.9
	l0.9,0l0,0h0c0,0.3,0.1,0.5,0.3,0.5c0.1,0,0.2-0.2,0.3-0.5h87.1c0,0.3,0.1,0.5,0.3,0.5c0.1,0,0.2-0.2,0.3-0.5h0l0,0l0.9,0
	c1,0.6,1.7,0.8,2.9,0.5c0.7-0.2,1.4-0.4,2.2-0.7L97.8,0.1z"/>
</svg>
