<?xml version="1.0" encoding="utf-8"?>
<!-- Generator: Adobe Illustrator 19.2.1, SVG Export Plug-In . SVG Version: 6.00 Build 0)  -->
<svg version="1.1" id="Слой_1" xmlns="http://www.w3.org/2000/svg" xmlns:xlink="http://www.w3.org/1999/xlink" x="0px" y="0px"
	 viewBox="0 0 1499.9 1156.6" style="enable-background:new 0 0 1499.9 1156.6;" xml:space="preserve">
<style type="text/css">
	.st0{fill-rule:evenodd;clip-rule:evenodd;fill:#556F6D;}
	.st1{fill-rule:evenodd;clip-rule:evenodd;fill:#FFFFFF;}
	.st2{fill:none;stroke:#FFFFFF;stroke-width:0.5669;stroke-miterlimit:22.9256;}
	.st3{opacity:0.76;fill-rule:evenodd;clip-rule:evenodd;fill:#C3CDCA;}
	.st4{fill-rule:evenodd;clip-rule:evenodd;fill:url(#SVGID_1_);stroke:#000000;stroke-width:0.5669;stroke-miterlimit:22.9256;}
	.st5{fill-rule:evenodd;clip-rule:evenodd;fill:#333333;}
	.st6{fill-rule:evenodd;clip-rule:evenodd;fill:#262727;}
</style>
<rect x="286" y="96" transform="matrix(0.2175 -0.9761 0.9761 0.2175 2.5521 1196.9988)" class="st0" width="923.6" height="1001.9"/>
<g>
	<g>
		<path class="st1" d="M1321.5,928l0.2,0.1C1321.6,928.1,1321.4,928.1,1321.5,928L1321.5,928z M677.7,1038.4c-0.1-0.4-0.2-0.8-0.3-1
			l0.8-0.4c2.5,4.4,8.1,8.3,12,11.4c0.9,0.7,1.3,1,2.2,1.6c0.8,0.6,1.4,1.1,2.4,1c-1.4-1.2-7.4-10.4-8.6-13.1l13.6,8.9
			c16.3,9.9,30,15.9,47.4,23l6.7,2.4c0.5,0.2,0.5,0.2,0.9,0.3c0.1,0,0.2,0.1,0.3,0.1l19.2,5.8c6.5,1.9,13.1,3,19.7,4.4
			c1.5,0.3,2.8,0.5,4.2,0.7c12.3,1.9,24.7,3.2,37.3,3.6c11.7,0.3,23.2-0.4,34.9-1.3c1.5-0.1,2.9-0.4,4.7-0.5
			c5.8-0.5,12.5-1.5,18.2-2.8c3.2-0.7,6-1.3,9.3-2c29.8-6.3,60.5-20.6,86.5-37.6c15.3-10.1,31.3-22.8,44-35.6l12.3-12.7
			c5.3-5.8,10-11.9,15-18c0.8-1,0.7-0.9,1.5-1.9c1.9-2.3,3.6-4.3,5.5-6.6c17.3-21.8,46.9-52.7,73.9-24.6c5.2,5.4,7.7,9.1,8.3,16.6
			c0.8,10.6-1.2,21.1-8.8,28.8l-1.6,1.8c4.7-2.2,9.1-8.1,10.8-11.5c7.2-14.2,5.6-30.8,1.4-46c-3.4-12.4-11.7-22.5-19.2-29
			c-1.7-1.4-4-3.3-5.9-4.6l-6.4-4.1c-4.4-2.6-10.2-4.6-13.5-6.6c8.5-4.2,9.8-8,21.5-9.8c7.4-1.2,13.4-0.3,19.2,3.2
			c4.8,2.9,11.2,9.2,14.1,16.9c1.4,3.7,2.1,7.5,2,10.7c0,1.7,0,3.3-0.3,5.1c-1.3,6.9-5.2,17.1-3.2,24c1.2,4.4,5.1,4.6,8.9,2.2
			c5.1-3.3,7.7-7.8,10-12.9c1.8-3.9,2.7-8.7,2.9-13.1c0.2-4.5,2-3.2,5.9-7.8c2.2-2.7,3.4-5.7,5-8.5c4.1,5.3,8.4,10.4,13.7,14.5
			l7.2,5.7c8.6,6.3,18.2,10.9,28,14.9l13.1,3.6c12.5,1.9,24.9,2.4,37.6,0.6c14.4-2,26.6-5.8,43.1-13.5c-1.7-0.9-0.8-0.3-3.2,0.2
			c-1.4,0.3-2.5,0.3-3.6,0.4l-9.7,0.1c-20.1-1.4-34.1-5.7-49.7-18.5c-7.4-6.1-17.8-16.7-19.4-26.8c-0.3-1.9,0.2-1.8-0.5-3.6
			c1.7-0.3,12.6,1.4,16,1.5c24.9,0.7,49.9-6.2,71.2-21c12.2-8.4,21.8-18.7,30.4-30.2c8-10.7,12.5-23.1,16.6-35.6
			c0.8-2.4,1.2-5.1,1.8-7.6c6-28.4,2-60.3-10.5-87.1l-5.1-9.8c2.1-1,2.7-1.8,5.2-3c14.9-6.7,31.5-9.1,47.6-6.7l9.2,2.1
			c6.4,2.3,11.5,4.7,17.2,8.5c5.4,3.7,10.8,7.9,15.2,13.1c2.3,2.7,4.8,5.5,6.9,8.5c1.7,2.4,1.5,2.4,1.3,4.9c-0.3,4.7-1,9.9-2.3,14.3
			c-0.9,3-3.4,5.5-0.6,9.6c1.7,2.4,5.4,4.7,8.1,5.2c3.5,0.8,7.6-0.5,8.5-4.2c3.1-12.5,3.8-26.9,0.3-39.8c-2.9-10.7-4.5-12.3-5.9-17
			c-0.7-2.4-1.8-3.3-2.9-5.5c-9.5-19.7-26.3-36.8-43.1-48.1c-5.3-3.6-10.9-6.3-16.8-8.7c-0.5-0.2-0.4-0.2-0.9-0.4l-2.1-0.8
			c-0.1,0-0.2-0.1-0.3-0.1l-0.9-0.3c-1.6-0.5-3-1.2-4.6-1.6c-2.4-0.6-7.7-1-9.6-2l18-7.9c7.7-3.5,19.4-11.4,26.1-16.3
			c14.3-10.5,26.2-23.5,35.9-37.9c13.2-19.4,20.6-43.3,20.9-66.8c0.1-15.2-2.6-30.4-8.1-44.6l-7.3-15.7c-0.8-1.5-1.7-2.9-2.5-4.4
			c-11.9-19.6-30-37.1-49.9-46.2c-0.8-0.4-1.3-0.4-2.1-0.8c-43.9-20.3-99.5-6.8-127.6,34.6c-4.4,6.6-7.4,12.9-10.1,20.1
			c-5.5,15.3-4.8,31.6-1.3,47.7c2.3,10.8,2.6,9.3,2.9,21.7c0.1,3.7,0.2,6.7,0.1,10.4c-0.2,7.4-1.3,12.4-4.3,18.7
			c-10,20.7-34.1,32-56.3,38.7c-8.8,2.6-38.7,10.7-46.6,14.4c0.3-1.7,1.9-2.4,3.4-3.6c14.4-12.2,25.3-25.5,36.9-40.3
			c1.1-1.4,1.7-2.3,2.7-3.8l10.4-15.8c22.5-36.9,31.9-70.1,18.5-115.1c-1.2-3.9-3.1-8-4.2-11.5c-0.6-1.9-2.6-7-4-8.6
			c-1-1.2-0.8-0.5-1.1,0.4l-5.7,22.5c-0.6,1.7-0.6,2.6-1.2,4.4c-15.3,42.7-49.2,78.4-83.9,106.4c-11.5,9.3-24.3,17.4-36.4,25.7
			c-30.1,20.6-62.2,46.6-79.3,78.5c-7.4,13.7-13.3,27.9-15.6,43.5c-1,6.7-1.4,12-1.3,19.1c0.1,9.1,1.7,13.5,8.5,18.6
			c-2.5,4.1-9,20.3-10.1,24.5l-2.7,8.7c-8.7-18.6-14.4-31.1-18.2-50.7c-2.2-11.5-3.1-22.5-1.5-33.6c0.3-2,0.4-3.2,0.8-5.2
			c1-5.1,2.2-10.5,4-15.4c0.7-1.9,0.7-3.1,1.4-5c3.1-8.5,9.3-20.7,13.9-28.3l5.8-8.9c1.2-1.8,1.6-2.8,3.4-4.3
			c5.3-4.3,14.9-11,22.1-14.3l-0.2-0.4c-16.8,7.8-33.9,21.7-43.7,32.3c-12.2,13.1-22.8,27.1-31,43.1l-7.5,21.4
			c-2.8,11.2-4.4,22.6-5.5,34.1l-0.4,6c-0.9,20.2,0.2,40.6,0.8,60.9c0.3,12.3,1.4,24.3,1.1,36.5c-0.2,6.1,0,12-0.5,18.1
			c-1,11.5-2.3,23-5.7,34.1c-0.4,1.3-0.3,1.7-0.7,2.8c-0.3,1.1-0.7,1.7-0.9,2.8c-3.3,13.5-12.2,30-19.7,41.4
			c-2.1,3.2-4.3,7.3-7.4,9.7c-2.1-2.6-12.4-7.9-15.7-9.8L872.8,879c-2.2-1.1-3.4-1.4-5.6-2.5c-1.2-0.6-1.6-0.6-2.7-1.1l-40-14.9
			c-1.2-0.4-1.9-0.8-3-1.1l-24-6c-13-2.7-26.7-4.8-40.1-5.2c-0.6,0-1.1,0-1.7,0c-7.1-0.2-14-0.3-21.2,0.5c-4.9,0.6-8.6,1-13.8,1.8
			c-7.4,1.2-14.5,3.1-21.7,5.8c-2.9,1.1-4.2,0.4-6.8,2c-5.9,3.6-15.3,6.1-14.9,13.9c0.2,4.4,1.8,2.2-1,6.2
			c-3.7,5.2-6.3,10.7-9.1,16.3l-3.9,8.9c0,0-0.3,0.6-0.3,0.6c-0.3,0.7-0.4,0.8-0.7,1.5c-0.8,2-1.4,3.6-1.9,5.8l-3.3,11.9
			c-0.5,2-0.7,4-1.1,6.2c-0.3,2.1-0.7,4.1-0.9,6.2c-0.3,4.4-0.9,8.5-1,12.7c-0.2,8.7,0.2,17.7,1.6,26.4l6.3,28.1c0,0.1,0,0.2,0,0.4
			c-0.6-0.8-1.2-1.6-1.8-2.5L677.7,1038.4L677.7,1038.4z M684.3,1034.7c-4.5-9.8-10-23.6-10.1-34.3c0-1.1,0-1.2,0.3-2
			c2.1,4.5,9.3,10.8,12.3,13.4c4.5,3.9,9,7.3,13.8,10.2c2.4,1.4,4.6,2.8,7.1,4.2l7.2,3.9c2.5,1.4,4.9,2.3,7.3,3.6l28.3,11.2
			l21.9,6.9c1.6,0.5,2.4,0.6,4.1,1.2l7.8,2.1c2.9,0.8,5.4,1.3,8.2,2c6.7,1.7,17.2,3.4,24.2,4.5c3,0.4,5.7,0.6,8.6,0.9l26,0.4
			c3.1-0.2,5.9-0.2,9.1-0.5c32.6-3.3,56.6-10.9,87.3-25.3c9.4-4.4,27.2-14.6,36.6-21.1c22.6-15.6,38.5-28.8,57.1-48.7
			c4.7-5,11.3-12.4,15.3-17.9l19.3-27.7c5.2-7.6,5.1-7.1,10.4-13.8c1.1-1.3,2.5-3.2,4-4.4c12,1.9,17.3,3.1,28.6,8.5
			c8.4,4,18.6,12.6,23.9,24.1c1.4,3,1.8,4.5,2.8,7.2c0.9,2.3,1.2,4.8,2.3,7l-0.4,0.2c-3.4-7.3-12-14.8-19.2-18.2
			c-9.6-4.5-19.8-2-29.5,2.5c-14.5,6.8-24.7,19.3-34.6,30.4l-20.9,24.4c-14.1,16.3-45.3,41.4-64,52.4c-18.3,10.8-30,16.7-49.8,24.1
			c-5.9,2.2-13.9,4.8-19.5,6.2c-18.9,4.7-43.5,9.4-63,9.4c-25.6-0.1-40.1-0.5-66.3-6c-2.9-0.6-5.1-1.1-8-1.8l-7.8-2.1
			c-9.5-2.6-13.9-4.1-23.1-7.4l-25.7-10.7C709.4,1050.4,686.1,1038.6,684.3,1034.7L684.3,1034.7z M1170.7,768.1
			c0.2,1.3-1,9.6-0.7,14.5c0.3,5.5,0.6,9.8,1.5,15.7c2.7,17.5,11.7,33.8,23.5,47.7c5.5,6.5,15.6,14.6,23.4,19
			c2.1,1.2,4.1,2.1,6.4,3.3l6.6,2.8c-4.2,27.3,34.6,52.1,60.2,56.7l29,0.6c-2.1,0.9-6.6,1.7-8.7,2.1c-3.1,0.6-6.1,1.2-8.8,1.5
			c-17.4,2.2-31.4,2.7-48.7-0.6c-4.8-0.9-9.9-2.8-14.6-4.4c-13.1-4.8-30.3-14.5-40.5-24c-1.4-1.3-4.7-4.4-5.8-6.1
			c-1.2-2,0.2-3,0.4-7.9c0.9-26.2-20.5-45.1-27.3-73.3c-3.1-12.7-3.4-28.5,0.9-40.6C1168.3,773.2,1169.1,769.5,1170.7,768.1
			L1170.7,768.1z M1171,767.5l-0.2,0.6L1171,767.5z M1171,767.5L1171,767.5L1171,767.5z M1176.8,890.5
			c-4.8-10.2-11.1-16.3-19.2-21.9c-13.4-9.1-31.2-8.1-45.6-1.4c-9.5,4.4-20.7,13.4-26.3,19.3c-4.1,4.4-8.4,8.8-11.9,13.6
			c-0.8,1.1-1.4,1.8-2.3,2.9c-5.6,7.2-14.1,21.3-19.2,29.5c-10,16.2-24,31.2-37.4,44.6c-18.8,18.7-42.8,36.7-66.1,48.9l-12.1,6.6
			c-8,4.3-27.1,11.5-35.8,14.1c-24.7,7.5-49.7,11.6-75.3,10.1c-3.2-0.2-5.8-0.4-8.7-0.7c-11.4-1.2-22.5-3.2-33.7-5.8
			c-11-2.5-21.6-6-32.7-8.6l-39.1-15.6c-11.2-5.4-30.1-17.4-36.7-27.9c-1.2-2-0.7-4.1-0.6-6.5c0.1-2.3,0.6-7,1.7-8.7l8.7,7.2
			c11.8,9.3,25.1,16.2,38.5,22.8c10,4.9,20.7,8.2,31.2,11.8c1.5,0.5,2,0.4,3.5,0.9l10.7,2.8c2.7,0.7,4.6,1,7.3,1.6l14.6,2.4
			c42.7,5.9,86.2-3.2,125.2-21.4c48.5-22.6,88.2-57.1,121-98.4c7.3-9.1,14.1-18.3,20.2-28.1l6.2-9.8c4.5-8.3,9.7-16.1,14-24.5
			c0.9-1.7,1.7-3.2,2.5-4.9l13.4-30.9c2.8-6.9,4.7-14.1,7.7-21l8.8-20.6c2.4-5.2,4.9-9.9,8.2-14.6c4.4-6.4,9.2-12.8,14.8-18.4
			c21.5-21.3,46.9-31.1,76.8-32.3c1.8-0.1,3.7-0.2,5.4,0.3c-3.5,1.6-9.7,5.6-12.2,7.6c-11.1,8.7-21,20-25.9,33.3l-4.6,13.8
			c-0.5,1-1.1,1.6-1.8,2.4l-3,5.1c-11.1,20.7-10.3,43.9-3.6,66.2c2.7,9,7.3,19.4,10.6,28.3C1177.1,873.4,1179.3,881.7,1176.8,890.5
			L1176.8,890.5z M701.9,944.7l7.7-5.8c2.9-2.2,5.3-3.9,8.5-5.8c1.3-0.7,2.7-1.6,4.2-2.6l9.8-5.4c3-1.5,1.8-1.7,3.5-3.2
			c8.6,1.3,31.1,13.8,39.4,19.4c11.5,7.7,26.5,19.9,36.3,29.9l9.7,10.3c-17.2,3.6-32.9,2.2-49-1.6c-2.8-0.7-4.8-1.4-7.4-2.3
			c-15.7-5-20.7-8-35.4-16.1l-13.3-8.7C709.2,948.2,703.5,945.9,701.9,944.7L701.9,944.7z M672.5,1017l-0.4,0.2
			c-0.8-1.8-1-1.6-1.7-2.8c-8-13.3-7.4-17.8-9-33.8c-0.4-3.9-0.2-7.4-0.4-11.2c-0.6-11.1,2.6-31.6,6.4-42.1c1-2.6,3.1-7.7,3.5-10.1
			c2.2,0.4,1.1,1.4,4.6,0.7c6.8-1.4,8.8-1.9,16.4-2.4c3.5-0.2,18,0,20.2,1.2c-3.9,2.3-13.9,11.3-17.4,15
			c-9.6,10.1-18.2,21.3-23.1,34.3c-2,5.1-2.9,5.9-4.2,12.9C665.3,989.8,666.9,1005,672.5,1017L672.5,1017z M746.8,888.5
			c1.5,0.9,10.8,2.9,13.2,3.5c1.7,0.4,2.7,0.8,4.4,1.2c2,0.5,2.6,0.8,4.3,1.3c7.5,2.2,15.5,4.4,22.7,7.7c8,3.6,16.2,6.7,23.9,10.9
			c11.6,6.2,20.8,11,31.5,19.5c10.3,8.2,19.7,16.8,28.6,28.2c-5,2.3-9.5,5.5-15,8c-9.4-12-24.4-24.7-37.4-32.5
			c-8.2-5-17.6-10.6-26.6-14l-28.2-10.4l20.1,11.8c17.8,10.8,33.3,24.1,46.5,40.5c2.3,2.9,6.4,8.1,8.1,11.8c-0.8,0-8.6,2.6-10.4,3
			c-3.3,0.9-7.2,1.4-10.2,2.5c-2.7-5.6-10.3-13.7-14.6-18.6c-12.1-13.9-25.4-25.9-40.1-36.5c-16.4-11.9-35.5-20.4-55.3-24.8
			c-3.3-0.7-6.6-1.1-10.1-1.7c-6.1-0.9-12.4-1.2-18.5-1.1c-1.9,0-1.2,0.5-2.6-0.3l10.4-13.4c10.2-12.7,16.6-14.8,33-18.8
			c16-3.9,32.4-4.9,48.7-4.1c1.6,0.1,2.6,0.3,4.4,0.3c3.1,0.1,5.3,0.4,8.4,0.6c1.6,0.1,2.4,0.3,3.9,0.5c19,1.9,37.7,6.7,55.9,12
			c1.4,0.4,2.5,1,4,1.4l7.7,2.5c5.2,1.9,10,3.6,15.2,5.5l22.6,9c2.4,1.2,4.9,2.3,7.4,3.3l14.7,6.9c3.3,1.7,12.5,5.5,14.6,8
			c-1.3,1-1.6,1.8-2.8,3.1c-2.7,3-5.7,8.1-9.2,10.1c-2.5-3.1-10.3-8-13.8-10.3c-8.2-5.5-16.5-10.4-25.2-14.9l-11.2-5.3
			c-1.6-0.6-2.2-1.1-3.8-1.8c-1.4-0.5-2.5-0.9-4-1.4c-2.6-0.9-4.8-2.3-7.5-3.1c-1.7-0.5-2.3-0.5-4.1-1.1
			c-10.4-3.8-21.5-5.9-32.4-7.5c-5-0.8-17.1-2.5-21.4-1.6c2,1.1,5.3,1.2,7.6,1.7c7.8,1.6,15,3.6,22.5,6.3c5,1.8,9.8,3.2,14.5,5.6
			l22.5,11.9c11,6.7,21,14.5,30.9,22.8c3.8,3.2,9.2,7.9,12.2,11.8c-1.9,0.9-5.9,4.7-7.7,6.1c-2.1,1.6-5.7,4.7-8.4,5.9
			c-2-2.5-5.3-5.6-7.6-7.6c-10.4-9.1-21.2-16.9-32.9-24c-5.5-3.4-11.6-6.2-17.4-8.9l-12.1-4.7c-0.1,0-0.2-0.1-0.3-0.1l-19.9-6.7
			c-8.7-3.2-24.1-6.2-33.7-7.7l-9.8-1.5C755,889.1,748.7,888.1,746.8,888.5L746.8,888.5z M1026.3,587.1c-0.3,0.7,0,0.3-0.7,1.1
			c-0.3,0.4-0.6,0.8-0.8,1.1c-0.6,0.7-1,1.3-1.7,2.1c-1.2,1.6-2.2,2.8-3.4,4.3c-5.4,6.8-10.3,14.6-14.3,22.3
			c-3.2,6.1-5.8,12.6-8.1,19.1c-8.3,22.7-7.4,48-1.8,71.3c3.7,15.1,8.4,30.3,15.6,44.3c1.4,2.6,2.4,3,4.6,3.4
			c-0.9,5.8-7.8,34.5-9.9,40.8l-8.4,26.9c-3.2,8.7-6,18.4-9.9,26.7l-8.1,18.8c-5.3,11.5-10.7,20.3-16.5,31.2
			c-2.3,4.4-5.1,8-7.7,12.3c-1.3,2.2-2.5,3.6-4,5.8c-14.6,21.3-32.5,40.5-54.1,55c-5.1,3.5-18.7,11.3-24.2,13.6
			c-2.1,0.9-2.3,0.6-4.3,1.5c-9.9,4.3-19.2,7.7-29.7,9.8c-5.4,1.1-10.7,2.4-15.9,2.9c-2.7,0.3-5,0.6-7.5,0.9
			c-16.3,1.4-28.3,1.2-44.6-0.5c-6.9-0.7-14.3-2.1-20.8-4.4l-6.8-2.1c-19.3-7-34.1-15.9-48.4-31.5c-1.3-1.4-4-5.1-5.3-6.2
			c5.2-6.3-1.4,0.7,22.4,15.1c2.9,1.8,5.4,3.2,8.2,4.9c2.7,1.6,5.5,3,8.4,4.4l17.2,7.6c3.1,1.1,5.7,2.1,8.8,3.2
			c5.9,2.2,12.1,3.3,18.3,4.7c6,1.3,12.9,2.1,19.2,2.2c15.5,0.2,27.2-1.3,42.3-5.5c32-8.9,61.3-28.1,81.4-46.8
			c10.1-9.4,19.3-20,26.5-30.3c6.4-9.2,15-22.7,18.8-33.4l1.5-3.6c4.5-9.6,8.8-26.6,10.1-36.9l1.7-14.5c1-9.8,0.7-19.9,0.5-29.8
			c-0.3-17-2.5-34.2-3.4-51.2l-0.9-20.6c-0.2-13.3-0.4-26.5,0.9-39.6c1.9-18.7,6.2-37.8,16.1-54.1c8.6-14.2,18.4-27.4,30.4-38.8
			C1020.1,592.5,1023.7,588.6,1026.3,587.1z M1026.3,587.1c0.4-0.7-1.1,0,1-1C1027,586.7,1028,586.2,1026.3,587.1L1026.3,587.1z
			 M1027.6,585.5l0.2,0.1C1027.8,585.6,1027.6,585.6,1027.6,585.5L1027.6,585.5z M1095.4,663.9c0.8-1.4,2-2.1,3.3-3.3
			c8.4-7.2,16.6-13.6,26-20.1c6.7-4.7,14.5-9.5,22.2-13.2l9.3-4.9c2.1-0.9,2.5-0.7,4.7-1.7c16.7-7.5,31.1-10.8,47.2-13.5
			c2.9-0.5,5.8-0.7,8.6-1.1c3.2-0.4,5.7-0.5,8.9-0.7c15.2-0.8,35,0.1,49.8,3.1c16.9,3.4,33.4,9.4,50.5,11.5
			c18.7,2.3,38.5-0.7,57.2-5.8c15.8-4.4,24.5-9.1,38.4-16.7c5.8-3.2,11.6-7.4,16.2-11c42.9-32.3,64.5-83.6,48.6-134.1
			c-1.1-3.5-2-5.8-3.8-10c-0.9-2.1-0.5-2.7-1.7-4.7c-7.8-14.1-13.9-23.6-25.4-34.4c-6.3-5.9-12.9-11-20.4-14.9
			c-2.4-1.3-4.4-2.3-6.9-3.6l-7.4-3.3c-15.5-5.5-32.3-8.4-48.7-5.2c-9.3,1.8-20.1,5.3-28.5,10.6c-10.2,6.5-19.9,14-26.7,24
			c-4.7,6.8-8.6,13.6-11.4,21.3c-7.1,19.5-5.9,42.1,5.9,59.9c4,6.1,7.3,10,11.7,14.1c8.3,7.7,17.6,12.9,28.4,15.6
			c17,4.3,38.5-1.3,50.6-15.2c4-4.6,6.9-8.2,9.3-13.5c7.5-16.9,4.7-35.9-10.7-48.6c-31.8-26.1-68,15.2-41.7,35.9
			c7.2,5.6,17.2,4.8,23.3-2.8c8.7-10.9-2.7-22.7-1.6-25.7c1.7-2.1,4.9-1.6,6.9-1.1c15.3,4.2,19.5,28,6.6,41.1
			c-2.8,2.9-8.5,7.2-13.8,8.9c-4.5,1.4-10.2,1.9-14.3,1.5c-8.8-0.9-17.1-5.2-23.2-11.9c-7.3-8-11.2-19.1-10.8-28.6
			c1.3-34.1,42.5-55.2,73.9-33.9c10.9,7.4,12.8,11.9,19.5,22.1c1.9,2.8,4.5,12.3,5,15.3c6.7,43.4-36.8,80.1-77.6,71.4
			c-2.3-0.5-4-0.9-6.4-1.4c-10.5-2.4-27.2-11.7-33.9-20.3c-1.2,1-0.9,1.7-1.1,3l-2.4,9.1c-12.9,35.4-47.3,48.3-81.4,57.7
			c-14.5,4-30.4,8.4-45,13.1c-45.2,14.6-87.3,36.8-116.2,73.2c-6.2,7.8-11.3,16-16.2,24.4l-7.2,13.9c-0.5,1.3-0.9,1.7-1.4,2.9
			c-3.4,7.8-7.1,15.6-9.2,23.8l-12.3,45.1c-0.5,2-1,4-1.6,6c-0.7,2.1-1.1,4.1-1.6,6.3l-7.6,23.7l-18.7,46.9c-1,1.9-1.7,3.7-2.6,5.6
			c-20.9,43.2-51.9,88.1-94.7,112.2c-14.5,8.1-30.2,14.6-46.3,18.5c-4.9,1.2-9.3,2.1-14.2,3c-9.1,1.8-18.6,2.1-27.8,2.5
			c-31.3,1.6-71.6-6.7-96.5-28.2c-3.6-3.1-6.6-5.6-10-9.3l-9.2-10.7c-1.5,1.2-2.5,2.7-3.5,4.2c-1.1,1.6-1.9,2.8-3.1,4.4l0.8,1.7
			l-0.8-0.6c-2.9,2.3-6.4,11.1-6.9,14.3c3.1,3.9,17.6,13.3,22.7,16.1c1.6,0.9,2.8,1.7,4.5,2.7c14.8,8.7,35.3,17,51.9,21.1
			c19.1,4.7,36.7,7.6,56.4,7.6c18,0,35.5-1.9,53.1-6.8c9.4-2.6,23.8-7,32.6-11.1c6.6-3.1,14.1-6,20.3-9.5
			c32.9-18.8,54.7-34.4,80.4-60.9c2.9-3,5.4-5.5,8-8.5l18.1-21.6c17-22.4,29.8-43.9,42.3-69.3l6.5-14.8c5.2-11,9.5-22.9,12.6-34.6
			c0.8-3.2,2.5-6.9,3.6-10l10.8-24.3c0.9-1.7,1.5-3,2.5-4.6c7.8-12.9,16.7-25,29-34.9c14.8-11.9,29.3-20,47.7-24.9
			c2-0.5,4.2-1,6.4-1.5l17.5-2.7c3.9-0.4,7.7-0.4,11.5-0.4c8.7,0,18.7,0.9,25.8,6.6c1,0.8,1.2,0.9,2,2.1c0.6,0.8,0.3,0.4,0.7,1.2
			l0.5,0.9c1.9,0.7,22.6-3.4,42.8,10c17.9,11.9,29.9,31.8,30.6,53.5c0.1,2.3,0.2,3.6-0.1,5.8c-0.6,5.7-1.5,10.9-3.5,16.3
			c-0.6,1.8-1.1,3.5-2,5.1c-8.4,16.5-26,29.2-44.6,30.5c-4.2,0.3-7.4,0-11.6-0.4c-11.2-1.1-21.7-7.4-29-15.9
			c-8.6-10.1-12.2-23-10.3-35.9c1.1-7.6,4-14.1,9.2-19.7c2.6-2.7,5.6-6,9.8-8.1c8.3-4.1,16-5.8,24.4-3.6c6.9,1.8,14.1,4.2,18.6,12.4
			c3,5.5,5.6,12.1,3.3,18.1c-0.9,2.2-1.2,2.9-3.9,3.4c-6.2-7.9-7.2-15.2-18.5-17.2c-1.7-0.3-4.5-0.2-6.2,0
			c-17,2.3-24.1,22-14.8,35.8c5.1,7.5,11.1,11.8,19.7,13c9.1,1.3,16.1,0.5,25.8-6c30-20.3,16.9-69.5-19.8-79.4
			c-29.5-7.9-63.2,10.3-74.2,38.6c-4.4,11.4-5.3,22.8-3.9,35.4c2.2,19.2,11.3,36.7,24.4,49.4c11.6,11.3,25.7,18.7,41.3,21.8
			c35.8,7.2,74.2-6.9,97.5-33.4c11.7-13.3,18.8-27.5,23.6-43.4c2-6.6,3.1-13.4,3.8-20.3c1-9.4,0.3-21.2-1.4-31.2
			c-5.3-31.4-20.2-58.2-43.6-79.7c-7.4-6.8-15.5-12.7-24.3-17.5c-5-2.7-10.2-5.5-15.5-7.5c-2-0.7-3.5-1.3-5.5-2
			c-2-0.7-3.2-0.8-5.3-1.6l-5.6-1.6c-22-5.2-44.4-6.4-67-2.3c-13.8,2.5-28.4,6.3-41.3,12.1c-9.4,4.3-18.4,9.1-27.1,14.9
			c-16.5,11.1-30.7,24.3-42.8,39.5c-1.4,1.7-2,2.9-3.4,4.6c-8.6,10.7-15.5,23.2-21.3,35.6l-3.2,7.8c-0.2,0.7-0.3,0.9-0.6,1.5
			c-2.4,5.8-4.1,11.8-6.1,17.8c-1.7,5-4.3,16.9-5.6,22.4c-1.3,5.5-2.7,11.5-4.6,16.9l-4.4,13.9c-2.4,8.2-5.6,16.4-8.6,24.4
			l-11.3,26.5c-0.9,1.7-1.5,3.3-2.3,5c-3.2,7.2-7.3,13.8-11.1,20.8c-17,31.4-45.3,63.1-73.8,84c-9.4,6.8-26.3,18.2-36.9,23
			c-5,2.3-9,4.7-14.3,7.2c-6.5,3-22.5,9.1-28.4,10.9c-4.9,1.5-9.4,2.8-13.8,3.9c-8.8,2.2-18,3.8-26.1,4.5c-12.3,1.1-24.7,0.8-37-0.5
			c-3.5-0.4-7.9-1.1-11.4-1.8c-7.7-1.7-15.1-3.5-22.5-6.2c-5.5-2-10.8-4-16.2-6.6l-10.1-5.3c-1.8-0.9-3.3-1.8-5.1-2.9
			c-5.1-3-10-6.2-14.6-9.9c-3.8-3-11.6-7.8-13.9-11.8c1.9,0.9,4,3.2,5.6,4.5c1.8,1.4,3.4,2.7,5.3,4.2c7.6,6,25.2,17,34.7,20.9
			c22.8,9.2,40,13.5,65.4,14.2c38.1,1.2,75.7-13.6,109.2-32.4c14-7.9,27.3-17.9,39.5-28c4.1-3.4,7.3-6.4,11.2-10.1
			c8.8-8.3,16.8-17.3,24.2-26.6c5.7-7.1,11.2-14.7,15.9-22.4c8.1-13.3,16.1-26.8,22.2-41.1l5.2-12.2c1.9-3.8,3-7.8,4.6-11.7l0.2-0.6
			c0-0.1,0.2-0.7,0.3-0.9c0-0.1,0.1-0.2,0.1-0.3l11-33.5c0.5-1.4,0.6-1.6,0.9-3.1l6.7-25.8c2.2-10.1,4.6-20.1,8.1-29.8l0.2-0.6
			c0-0.1,0.1-0.2,0.1-0.3l0.3-0.9c0-0.1,0.1-0.2,0.1-0.3c0-0.1,0.1-0.2,0.1-0.3l5-12.3c2.5-6.1,6.1-11.8,9.2-17.7
			c6.4-12,15.2-23.4,24.3-33.5c18.9-21.2,38.5-35,64.5-47.1c21.1-9.8,40-13.4,62.1-15.5c13.9-1.3,27.9,0,41.5,2.4
			c19.8,3.4,38.8,11.2,55.5,22.4c2,1.4,3.5,2.7,5.4,4c7.2,4.8,15.5,12.8,21.2,19.4c3.4,4,6.5,7.7,9.7,12.1c1.5,2,3.3,4.5,4.5,6.5
			c1.4,2.3,2.9,5.1,4.3,7c7.7-4.4,5.2-3.9,15.2-8.6c12.1-5.7,24.6-7.4,37.3-6.1c20.9,2.2,39.9,15.6,50.3,33.9l-0.6-6.8
			c-4.9-26.2-22.6-51.3-42.6-67.3c-7.9-6.3-20.1-13.3-30.4-14.9c-1.9-0.3-1.3-0.1-3.3,0.6c-17.5,6.1-43.1,10.9-61.4,8.9
			c-8.2-0.9-16.3-2.2-24.3-4.2l-17.6-4.7c-2.1-0.5-3.9-1.1-5.9-1.6c-2.1-0.5-3.8-1-6-1.5c-6-1.5-12.3-2.8-18.5-3.2
			c-2-0.1-3.8-0.4-6-0.7c-12.7-1.3-25.8-1.8-38.8-0.4c-9.1,1-18.5,2.4-27.5,4.5c-7.1,1.7-14.7,3.9-21.6,6.4
			c-1.4,0.5-2.6,1.3-4.1,1.7c-6.3,2-16.8,7.1-22.5,10.6c-1.2,0.7-2.4,1.1-3.6,1.8c-12.1,6.8-25.8,16.8-36.2,25.7
			C1099.4,661,1097,663.2,1095.4,663.9L1095.4,663.9z M1251,390.1c1.1,2.4,1.4,9.2,1.7,12c1.1,9.3,0.9,14.8,1,23.4
			c0.2,13.2-2.5,31.3-5.6,44.1c-0.4,1.8-0.7,3.6-1.3,5.4c-0.7,2-0.8,3.2-1.6,5.3l-3.3,10.1c-2.3,6.4-5.5,13.8-8.7,19.9l-5.2,9.8
			c-1.8,3.3-3.5,6.1-5.5,9.4c-10.2,16.8-29.7,40.5-44.7,52.9c-4.3,3.6-13.6,5.7-19,8.2c-2.9,1.4-4.5,1.7-6.8,2.7
			c-21.7,9.3-31.9,15.8-50.7,27.7c-9.1,5.8-21,16.7-28.8,24.3c-11.1,10.9-19.8,23.2-27.8,36.4c-1.3-6,0.2-16.3,1.1-22.3
			c0.9-5.6,2.3-9.2,3.5-13.9l6.9-16.8c11.3-24.4,30.4-43.8,51.2-61.6c6.2-5.3,12.4-10.5,19.3-15.7l30.7-23.3
			c18-14.5,27.8-25.8,42.4-41.7l7.3-8.7c11.9-15,21.5-29.4,29.8-46.6c1.7-3.6,7.6-17.3,8.2-20.1c0.7-3.3,3.1-8.6,4.5-15.6
			C1249.8,394,1250.4,391.1,1251,390.1z M1251,390.1l-0.2-1L1251,390.1z"/>
		<path class="st1" d="M1411.1,401.3l10.3,7.7c17.8,14.1,36.7,37.8,42.1,60c2,8.1,3,19.6,1.9,27.6c-0.4,3.2-1.4,9.3-2.4,12.2
			c-0.8,2.1-1,3.7-1.8,5.9l-3.7,8.6c-6.4,12.6-9.2,18-19.5,29.4c-9.7,10.7-23.1,20.1-37.9,26.5c-16,6.9-40.8,10.8-57.1,11.1
			c-4.7,0.1-8.5,0.2-13.1,0l-13.2-0.6c-4.3-0.1-8.6-0.8-13-1.2c-32.8-2.4-64.6,0.5-96.7,9.3c-2.3,0.6-4.6,1.4-7.3,2.2
			c-6.1,1.9-10.5,4.1-15.6,6c-2.6,1-6.4,1.4-6.9,3.7c10.5-4.9,21-7.7,30.9-10.2c9.9-2.6,19.4-3.8,29.4-5.2c4.7-0.7,9.2-1.1,14-1.4
			c4.6-0.4,9.5-0.4,14-0.6c12.4-0.6,28,0.3,40.4,1.6c11.5,1.2,14.9,1.7,26.8,2c51.4,1.4,100.2-14.4,125.7-62
			c3.6-6.7,7.9-16.5,9.6-24c6-26,0.7-49.2-15.5-71.1c-9.8-13.3-17.9-21.2-30.2-30.6C1420.4,406.6,1413.1,401.6,1411.1,401.3z"/>
		<path class="st1" d="M1340.5,803.1c0.9-1.5,1.2-2.8,1.5-4.6l1.9-9.6c1.5-10,2.2-14.1,2.5-25.2c1.1-39.3-10.3-78.1-44.1-100.8
			c-2.9-1.9-5.3-3.6-8.4-5.4l-17.9-8.5c-23.6-8.6-46.3-10.3-72.2-3c-19.9,5.6-29.3,10.8-45.6,22.3c-9.8,6.9-21.5,16.9-29.3,25.8
			c-1.3,1.5-2.6,2.6-3.4,4.3l7.6-7.2c22-18.8,42-33,71.3-40.3c14-3.5,28.7-4.2,41-3c18.1,1.8,37.8,9.4,53.1,19.8
			c25.2,17,39.6,44.4,43.6,75.6c1.7,13.3,1.9,27.3,0.8,40.6L1340.5,803.1z"/>
		<path class="st1" d="M1037,770.4c-0.7,1.2-1.4,4.7-1.7,6.3l-13.1,44.5c0,0.1-0.2,0.5-0.2,0.6l-6.6,17.9
			c-11.5,26.4-24.9,53.3-42.2,76.6c-9.3,12.5-14.5,20.1-25.9,32.9l-9.9,10.5c7.3-3.4,24.3-22.7,31.5-30.5c7.2-7.8,22.4-29.2,28.2-39
			c0.8-1.3,0.8-1.5,1.7-2.8c3.3-5,8.2-15.2,11.1-20.7l4.2-9.1c0.5-1.1,0.6-1.9,1.1-3l2.6-6.3c1.3-3.6,3.4-7.6,4.8-12.4l1.9-6.2
			c0.9-2.4,1.1-4.1,2-6.5c1.7-4.4,5.4-20.5,6.5-25.8c1-4.5,1.7-8.7,2.4-13.2C1036,781.2,1037.5,772.7,1037,770.4z"/>
		<path class="st1" d="M1068.1,780.7c-0.4,0.8-0.6,2-0.9,3.1l-3.5,13.2c-3.2,10.8-8.2,25.2-12.2,35.5l-11,24.9
			c-0.6,1.2-0.8,1.8-1.4,2.9l-14.7,27.3c-5.9,10.6-16.1,24.6-24,34.6c-9.2,11.6-24.8,28.2-36.2,37.4c-3.6,2.9-8.7,7.7-13.4,9.9
			l0.2,0.4c9.4-4.4,19.8-12.4,27.5-18.9c14.7-12.2,31.6-31,41.9-46c0.8-1.1,1.3-1.9,2-3l18.9-33c0.8-1.5,0.8-1.9,1.4-3.3
			c2.5-5.4,6.1-13.1,8.2-18.7l12.2-38.9C1064.2,803.8,1068.7,783.9,1068.1,780.7z"/>
		<path class="st1" d="M1140.1,563.9c4.2-2,13.7-8.5,17.8-11.4c13.6-9.4,25.6-19.8,37.5-31.1c12.8-12.1,18.6-19.9,28.4-34.4
			c1.6-2.4,2.9-4.7,4.4-7.4c2.5-4.4,7.7-14.4,9.5-18.9c0.6-1.6,1.5-2.6,1.7-4.2c-1.4,1.1-8.4,12.5-9.7,14.4
			c-12.4,18.4-24.4,32.8-40.5,47.9c-6.7,6.3-13.5,13.5-20.4,19.4l-28.4,25.1c-0.1,0.1-0.2,0.2-0.2,0.3
			C1140.3,563.6,1140.2,563.8,1140.1,563.9z"/>
		<path class="st1" d="M1138.2,582.4l15.3-7.1c11.6-5.8,29.6-18.9,38.2-27.1c10.5-10,18.1-19.7,24.9-31.9c1.1-1.9,5.8-9.7,5.4-11.8
			c-1,1.7-2.5,3.5-3.6,5.2c-4,5.7-8.2,10.4-12.7,15.7c-5.1,6-14.1,14.9-19.8,20c-13.5,11.7-26.9,21.9-41.2,32.5
			C1142.7,579.3,1140.5,581.3,1138.2,582.4z"/>
		<path class="st1" d="M983,837.5c5.2-8.7,9.2-25.6,10.5-35.8c0.6-4.6,0.8-8.3,0.9-13.1c0.4-14.5-2.8-34.5-6.3-48.8
			c-0.5-2-1.2-5.5-2.2-7.7l2.4,60.4c0,7.3-0.4,12.2-1.2,19.5c-0.9,8.6-1.8,11.6-2.9,18.9C983.8,832.9,982.7,835.8,983,837.5z"/>
		<path class="st1" d="M1140.5,810.5c0.7-1.3,1.3-14.3,1.6-17l2.6-16.6c0.4-2,0.7-3.4,1.1-5.4l1.5-5.7c0.7-2,0.9-3.3,1.6-5.3
			l5.2-12.6c4.5-8.7,5.6-11.3,11.4-19.6c0.1-0.1,0.7-1,0.7-1.1c0.5-1,0.5-0.4,0.4-1.6c-0.8,1-3.4,3.1-4.5,4.2l-7.9,8.8
			c-1.1,1.5-2.3,3.1-3.2,4.7C1138,764.2,1135.4,786.2,1140.5,810.5z"/>
		<path class="st1" d="M1121.2,826.5l6.6,12.2c0.1,0.1,0.2,0.2,0.3,0.2c-0.8-3.8-2.2-7.5-3.1-11.5c-3.1-14.3-3.9-27.6-1-41.7
			c0.3-1.7,0.7-3,1-4.8c0.4-1.9,0.8-3.1,1.2-4.7c1-4.6,6.3-17.8,6.5-18.7c-1.8,1.4-4,5.1-5.3,7c-3.2,4.7-3.9,7.5-6,11.6
			c-1.5,2.9-3,9.1-3.7,12.4C1115,800.5,1116,815.3,1121.2,826.5z"/>
		<path class="st1" d="M1447.5,667.9c-7.6-13.3-16.5-22.3-26.6-29.2c-8.3-5.6-17.9-10.2-27.4-13.7c-1.5-0.6-2.7-1.4-4.4-1.1
			l38.6,27.4l16,13.8C1445,666.4,1445.8,667.6,1447.5,667.9z"/>
		<path class="st1" d="M1386.2,554.7c-3.6-2.2-29-5.9-35.9-7.4l-17.7-4.4c-1.6-0.5-2.1-1.2-3.8-0.9c1.2,1.6,4.3,3.4,6,4.4
			c9.2,5.6,17.1,8,27.7,9c2.7,0.3,5.1,0.5,7.8,0.4c2.9-0.1,4.9,0,7.7-0.3l6.1-0.6C1385.3,554.8,1385,554.9,1386.2,554.7z"/>
		<path class="st1" d="M1413.2,659.2c-8-17.1-24.1-27-40.8-27.9c-2.7-0.2-4.5-0.7-7.6,0c1.7,1,4.1,1.7,6.2,2.7
			c2.1,1,3.9,1.5,6.3,2.6l12.6,6c9.1,4.9,14.3,9.2,21.6,15.5C1412.4,658.8,1412.4,658.8,1413.2,659.2z"/>
		<path class="st1" d="M1371.1,567.8c-0.8-0.5-21.4-5.2-26.7-7.1l-13-4c-3.9-1.1-9.6-4.1-13.1-4.6c5.3,6.7,16.4,11.6,24,14.4
			C1350.8,569.6,1361.9,569.7,1371.1,567.8z"/>
		<path class="st1" d="M1102.8,840.2c2.1,4.4,6.8,13.1,10.5,13.8c-4.9-10.5-6.1-17.4-7.3-26.4c-0.7-5.3-0.6-12.3,0.3-17.4
			c0.4-2.2,0.9-3.6,1-5.8c-1.8,1.4-3.9,5.6-4.7,7.6c-0.5,1.5-0.9,2.5-1.4,4C1099,821.8,1099.5,832.9,1102.8,840.2z"/>
		<path class="st1" d="M1345.1,576.9c-1.2-1.2-8.1-2.4-10.2-3.2l-15.4-4.9c-1.9-0.7-3.3-1.2-5.2-1.9c-2.7-1-7.9-3.2-10.4-3.6
			c2.3,4,9.3,8.5,13.3,10.7C1325.7,578.5,1334.8,579,1345.1,576.9z"/>
		<path class="st1" d="M1384.6,657.4c-4.4-9.3-11.4-14.5-20.5-14.7c-3.7-0.1-5,0.4-9,1.2c1.4,1.7,5.3,2.5,7.4,3.2
			C1367.2,648.8,1384.6,657.4,1384.6,657.4z"/>
		<path class="st1" d="M690.2,974.9c-0.6-1.1-4.2-4.9-5.6-5.5c0.7,1.3,1.6,2.1,2.7,3.1l2.1,1.9C689.9,974.8,689.8,974.7,690.2,974.9
			z"/>
		<path class="st1" d="M1340.5,803.1c-0.7,1.2-0.8,0.6-0.5,2.2C1340.7,804.1,1340.7,804.7,1340.5,803.1z"/>
		<path class="st1" d="M1095.4,663.9l-1.2,0.6l0.2,0.4C1096.6,663.9,1095,664.6,1095.4,663.9z"/>
		<path class="st1" d="M1037,770.4c0.6-1,0.5-0.3,0.3-1.6C1036.7,769.8,1036.8,769.1,1037,770.4z"/>
		<path class="st1" d="M684.6,969.4c-0.9-2-0.4-0.8-1-1C684.6,970.3,684,969.2,684.6,969.4z"/>
		<path class="st1" d="M1093.3,665.9c0.6,0.2,1.2-1.3,0.4-0.4C1093.7,665.5,1092.3,665.6,1093.3,665.9z"/>
		<path class="st1" d="M1092.3,666.9c0.6,0.2,1.2-1.3,0.4-0.4C1092.6,666.5,1091.3,666.5,1092.3,666.9z"/>
		<polygon class="st1" points="1068.1,780.7 1068.5,780.5 1067.9,780.1 		"/>
		<polygon class="st1" points="1140.1,563.9 1139.7,564.1 1140.3,564.4 		"/>
		<polygon class="st1" points="746.8,888.5 746.6,888 746.3,888.6 		"/>
		<polygon class="st1" points="1410.3,400.6 1410.1,400.2 1409.8,400.8 		"/>
		<path class="st1" d="M1091.6,667.7l0.1-0.2C1091.7,667.5,1091.6,667.7,1091.6,667.7z"/>
		<path class="st1" d="M1411.1,401.3l-0.8-0.6L1411.1,401.3z"/>
	</g>
	<g>
		<path class="st1" d="M60.6,624.9l-0.2,0C60.4,624.8,60.6,624.9,60.6,624.9L60.6,624.9z M583.8,1015.8c0.3-0.3,0.5-0.6,0.7-0.8
			l-0.6-0.7c-4.2,2.8-11,3.7-15.9,4.7c-1.1,0.2-1.7,0.3-2.7,0.4c-1,0.1-1.7,0.3-2.6-0.2c1.8-0.4,11.3-5.9,13.7-7.8l-16.2,1.7
			c-19,1.4-33.9,0.5-52.7-1l-7.1-0.9c-0.5-0.1-0.5-0.1-1-0.1c-0.1,0-0.2,0-0.3,0l-19.8-3.6c-6.6-1.3-13-3.3-19.6-5.1
			c-1.5-0.4-2.7-0.8-4.1-1.3c-11.9-3.9-23.5-8.4-34.8-13.7c-10.5-5-20.5-10.9-30.5-17c-1.3-0.8-2.4-1.7-3.9-2.6
			c-5-3.1-10.5-7-15-10.8c-2.5-2.1-4.8-3.9-7.4-6c-23.6-19.2-44.6-45.8-59.9-72.8c-9.1-15.9-17.6-34.5-23-51.7l-5.2-16.9
			c-2.1-7.6-3.5-15.2-5.2-22.8c-0.3-1.2-0.2-1.1-0.4-2.3c-0.6-2.9-1.3-5.4-1.8-8.4c-5.5-27.3-17.8-68.3-54.7-55.5
			c-7.1,2.5-11,4.6-15,11c-5.6,9.1-8.5,19.3-5.3,29.7l0.6,2.4c-3.2-4.1-4.4-11.3-4.4-15.2c0.1-15.9,9-30,19.7-41.6
			c8.7-9.4,20.7-14.7,30.3-17.1c2.1-0.5,5-1.1,7.3-1.4l7.6-0.7c5.1-0.3,11.2,0.6,15,0.3c-5.7-7.6-5.1-11.6-14.7-18.5
			c-6.1-4.4-11.8-6.4-18.5-5.9c-5.6,0.4-14.2,3.1-20.3,8.7c-2.9,2.7-5.3,5.7-6.6,8.6c-0.7,1.5-1.5,3-2,4.6c-1.9,6.8-3.1,17.6-8,22.8
			c-3.1,3.4-6.7,1.8-8.9-2.1c-3-5.3-3.3-10.5-3-16c0.2-4.3,1.5-8.9,3.3-13c1.9-4.1-0.4-3.7-1.7-9.7c-0.7-3.4-0.4-6.6-0.6-9.9
			c-6.1,2.8-12.2,5.4-18.8,6.7l-9,1.8c-10.6,1.7-21.2,1.5-31.7,0.6l-13.3-2.8c-12-4-23.2-9.1-33.8-16.6
			C70.3,639,61.2,630.1,50,615.7c1.9-0.1,0.9,0.1,2.7,1.7c1.1,0.9,2,1.4,3,2l8.6,4.5c18.6,7.9,33,10.4,52.7,6.1
			c9.4-2,23.4-6.8,29.5-15c1.1-1.5,0.6-1.7,2.1-3c-1.4-1-11.9-4.5-14.9-6c-22.5-10.7-41.6-28.2-53.9-51.1c-7-13-10.9-26.6-13.3-40.8
			c-2.2-13.1-0.7-26.3,1.4-39.3c0.4-2.5,1.2-5.1,1.9-7.6c7.5-28.1,25.6-54.6,48.9-72.8l8.9-6.4c-1.4-1.8-1.5-2.8-3.3-5
			c-10.3-12.7-23.9-22.4-39.3-27.6l-9.2-2.3c-6.7-0.9-12.4-1-19.2-0.2c-6.5,0.8-13.2,2.1-19.5,4.7c-3.2,1.3-6.8,2.7-10,4.4
			c-2.6,1.4-2.4,1.5-3.4,3.7c-1.9,4.3-3.6,9.2-4.5,13.8c-0.6,3.1,0.5,6.5-3.8,8.8c-2.6,1.4-6.9,1.7-9.6,1c-3.5-0.9-6.6-3.9-5.7-7.6
			c2.9-12.6,8.9-25.7,17.8-35.6c7.4-8.2,9.6-8.9,12.9-12.4c1.7-1.8,3.1-2.1,5.1-3.6c17.4-13.2,40.1-20.8,60.2-23.2
			c6.3-0.8,12.6-0.7,18.9-0.2c0.5,0,0.4,0,1,0.1l2.3,0.2c0.1,0,0.2,0,0.3,0l1,0.2c1.7,0.3,3.2,0.3,4.8,0.7c2.4,0.6,7.3,2.6,9.5,2.6
			l-12.5-15.2c-5.2-6.7-12.1-19-15.8-26.4c-8-15.8-12.6-32.8-14.7-50.1c-2.9-23.3,1.3-47.9,11.8-68.9c6.8-13.6,16.1-25.9,27.5-36.1
			l13.7-10.7c1.4-0.9,2.8-1.9,4.3-2.7c19.6-12,43.6-19.4,65.5-18.5c0.9,0,1.3,0.2,2.3,0.2c48.3,1.9,91.7,39.2,97.9,88.8
			c1,7.9,0.8,14.8-0.2,22.5c-2,16.2-10,30.3-20.5,43.1c-7,8.6-6.5,7.1-12.4,18c-1.7,3.2-3.2,5.9-4.8,9.2c-3.2,6.7-4.5,11.6-4.6,18.7
			c-0.5,23,15.8,44,32.5,60c6.7,6.3,29.5,27.1,34.9,34c0.5-1.6-0.7-3-1.4-4.7c-7.2-17.4-10.9-34.2-14.6-52.6
			c-0.3-1.8-0.4-2.9-0.7-4.6l-2.1-18.8c-3.2-43.1,3.4-77,35.9-111c2.8-2.9,6.4-5.7,9-8.3c1.4-1.4,5.5-5.1,7.4-5.8
			c1.5-0.6,1-0.1,0.7,0.9l-5.1,22.6c-0.2,1.8-0.7,2.6-0.9,4.5c-5.8,45,8.2,92.2,26.4,133c6,13.5,13.7,26.5,20.7,39.4
			c17.4,32,34.2,69.8,35,106c0.3,15.5-0.9,30.9-5.9,45.9c-2.2,6.5-4.2,11.3-7.5,17.6c-4.2,8-7.6,11.2-16,12.7
			c0.3,4.7-1.2,22.2-2.2,26.5l-1.6,8.9c16.2-12.6,27-21.2,39.2-36.9c7.2-9.3,13-18.7,16.6-29.2c0.7-1.9,1.2-3,1.7-5
			c1.4-5.1,2.8-10.3,3.5-15.5c0.2-2,0.7-3.1,1-5.1c1.1-9,1.2-22.7,0.5-31.6l-1.1-10.6c-0.3-2.1-0.2-3.2-1.1-5.4
			c-2.7-6.2-8.3-16.5-13.2-22.8l0.4-0.3c11.4,14.6,20.3,34.7,24.3,48.6c4.9,17.2,8,34.6,8,52.5l-3.1,22.4
			c-2.6,11.3-6.4,22.1-10.6,32.9l-2.4,5.6c-8.4,18.4-18.6,36.1-28.3,53.9c-5.9,10.8-12.3,21-17.6,32.1c-2.6,5.6-5.5,10.7-7.7,16.3
			c-4.3,10.7-8.4,21.6-10.4,32.9c-0.2,1.3-0.4,1.6-0.7,2.9c-0.2,1.1-0.2,1.8-0.4,2.9c-3.2,13.5-2.7,32.3-1.2,45.8
			c0.4,3.8,0.5,8.5,2.2,12c3.1-1.3,14.6-1.5,18.5-1.6l48.9-0.1c2.5,0,3.7,0.3,6.2,0.3c1.3,0,1.7,0.1,2.9,0.3l42.4,4.9
			c1.2,0.2,2,0.2,3.2,0.4l24.1,5.5c12.8,3.5,26,7.8,38.1,13.6c0.6,0.3,1,0.5,1.5,0.8c6.4,3,12.6,6.1,18.6,10.1
			c4.1,2.8,7.2,4.8,11.4,7.9c6,4.4,11.5,9.3,16.7,15c2.1,2.3,3.5,2.3,5.1,4.9c3.6,5.9,10.9,12.4,7,19.1c-2.2,3.8-2.6,1.2-1.9,6
			c0.9,6.3,0.7,12.4,0.7,18.7l-0.5,9.7c0,0,0,0.6,0,0.7c0,0.8,0,0.8-0.1,1.6c-0.2,2.2-0.4,3.9-1,6.1l-2.4,12.1c-0.5,2-1.2,3.9-1.8,6
			c-0.7,2-1.2,4-2,5.9c-1.7,4-3.1,7.9-4.9,11.8c-3.8,7.9-8.2,15.7-13.4,22.8L614,991.3c0,0.1-0.1,0.2-0.2,0.3
			c0.9-0.4,1.8-0.9,2.7-1.4L583.8,1015.8L583.8,1015.8z M579.6,1009.5c8.5-6.6,19.6-16.5,24.6-26c0.5-0.9,0.5-1.1,0.7-1.9
			c-3.9,3-13.2,5.4-17.1,6.4c-5.7,1.4-11.3,2.4-17,2.8c-2.8,0.2-5.4,0.4-8.2,0.5l-8.2,0.2c-2.9,0.1-5.4-0.1-8.1-0.1l-30.3-2.8
			l-22.7-3.9c-1.7-0.3-2.3-0.6-4.1-0.8l-7.9-1.7c-2.9-0.6-5.4-1.3-8.2-2c-6.8-1.5-16.8-4.7-23.6-7c-2.9-1-5.3-2-8.1-3.1l-23.4-11.5
			c-2.6-1.6-5.1-2.8-7.9-4.6c-27.5-17.7-45.4-35.5-66.3-62.2c-6.4-8.2-17.6-25.4-23-35.4c-13.1-24.1-21.2-43.1-28.7-69.4
			c-1.9-6.6-4.4-16.2-5.5-22.8l-4.6-33.5c-1.2-9.1-1.3-8.6-3-17c-0.3-1.7-0.8-4-1.6-5.7c-11.5-3.8-16.8-5.1-29.3-5.4
			c-9.4-0.3-22.3,2.7-32.3,10.5c-2.6,2-3.6,3.2-5.8,5.1c-1.9,1.7-3.3,3.7-5.2,5.2l0.3,0.4c6.3-4.9,17.4-7.7,25.4-7.4
			c10.5,0.4,18.5,7.2,25.1,15.6c9.8,12.6,13.2,28.4,17,42.8l7.5,31.2c5.1,21,21.5,57.4,33.2,75.8c11.4,17.9,19.1,28.5,33.4,44.2
			c4.2,4.6,10.2,10.6,14.5,14.4c14.7,12.8,34.5,28.2,51.8,37c22.8,11.6,36,17.8,61.8,24.8c2.8,0.8,5.1,1.4,7.9,2l7.9,1.7
			c9.6,2,14.3,2.7,24,3.9l27.8,2.1C550.1,1012.1,576.2,1012.2,579.6,1009.5L579.6,1009.5z M267.5,551c-0.8,1.1-3.5,9-6,13.3
			c-2.7,4.8-5,8.5-8.5,13.3c-10.4,14.4-25.8,24.8-42.6,31.8c-7.9,3.2-20.6,5.9-29.5,6.3c-2.4,0.1-4.6,0.1-7.2,0.1l-7.1-0.5
			c-8.6,26.2-54.5,30.7-79.4,23.1l-26.1-12.7c1.4,1.8,5.1,4.5,6.8,5.9c2.4,2,4.9,3.8,7.2,5.4c14.5,9.9,26.7,16.7,43.6,21.6
			c4.7,1.4,10.1,2.1,15,2.7c13.8,1.7,33.6,0.9,47-2.9c1.8-0.5,6.2-1.8,7.9-2.8c2-1.2,1.2-2.8,3.2-7.2c11.1-23.7,38.8-30.9,57.7-52.9
			c8.5-9.9,16-23.8,17.7-36.6C267.4,556.6,268.4,552.9,267.5,551L267.5,551z M267.6,550.3l-0.1,0.6L267.6,550.3z M267.6,550.3
			L267.6,550.3L267.6,550.3z M206.5,657.2c8.9-6.9,17.3-9.5,27.1-10.7c16.1-2,31.5,6.9,41.3,19.5c6.4,8.2,12.4,21.4,14.7,29.2
			c1.7,5.8,3.5,11.6,4.4,17.5c0.2,1.3,0.4,2.3,0.7,3.7c1.8,9,2.9,25.4,3.7,35c1.5,18.9,7.2,38.7,13.1,56.7
			c8.2,25.2,21.5,52.2,36.6,73.6l7.7,11.4c5.2,7.4,18.9,22.5,25.5,28.8c18.6,17.9,38.9,32.9,62.5,43.3c2.9,1.3,5.3,2.2,8.1,3.3
			c10.7,4.1,21.5,7.4,32.6,10.1c11,2.7,22,4.5,33,7.1l41.9,3.9c12.4,0.3,34.8-1.8,45.4-8.1c2-1.2,2.5-3.4,3.5-5.6
			c1-2.1,2.6-6.5,2.5-8.5l-11.1,2.5c-14.8,2.9-29.7,3-44.7,2.8c-11.1-0.2-22.1-2.1-33.1-3.7c-1.5-0.2-2-0.5-3.5-0.8l-10.8-2.4
			c-2.7-0.6-4.6-1.2-7.3-1.9l-14.1-4.5c-40.7-14.2-75.3-42-101.8-76c-32.9-42.2-52.6-91-63-142.7c-2.3-11.4-4.2-22.7-5.2-34.2
			l-1-11.5c-0.2-9.4-1.3-18.8-1.3-28.2c0-1.9,0-3.6,0-5.5l2.1-33.6c0.6-7.4,2.2-14.7,2.7-22.2l1.5-22.3c0.2-5.7,0.1-11-0.6-16.7
			c-1-7.7-2.4-15.6-4.9-23.1c-9.5-28.8-27.7-49-53.7-63.7c-1.6-0.9-3.2-1.9-4.9-2.2c2.4,3.1,6.1,9.4,7.4,12.3
			c6,12.8,9.6,27.3,7.9,41.4l-2.1,14.4c0,1.1,0.3,1.9,0.5,3l0.3,5.9c0.5,23.4-10.7,43.8-26.9,60.6c-6.5,6.8-15.3,13.9-22.3,20.4
			C214,641.8,208.3,648.2,206.5,657.2L206.5,657.2z M604.8,921.4l-4.2-8.7c-1.6-3.3-2.9-5.9-5-9.1c-0.8-1.2-1.7-2.7-2.6-4.2
			l-6.3-9.2c-2-2.7-0.8-2.3-1.7-4.4c-8.3-2.7-34-1.8-43.9-0.6c-13.7,1.7-32.6,5.7-45.9,10.2l-13.3,4.8c13.7,11,28.3,16.9,44.4,20.8
			c2.8,0.7,4.9,0.9,7.7,1.4c16.2,2.6,22.1,2.3,38.9,1.8l15.9-1.7C596.8,921.2,602.9,921.7,604.8,921.4L604.8,921.4z M598.2,999.1
			l0.3,0.4c1.5-1.2,1.6-1,2.8-1.7c13.1-8.2,14.7-12.5,23.3-26c2.1-3.3,3.6-6.5,5.4-9.8c5.6-9.6,12-29.3,13.4-40.4
			c0.3-2.8,0.7-8.3,1.5-10.6c-2.2-0.6-1.6,0.7-4.4-1.5c-5.4-4.3-7-5.7-13.5-9.6c-3.1-1.8-16-8.2-18.5-8.2c2.5,3.8,7.2,16.4,8.7,21.3
			c3.9,13.3,6.5,27.3,5,41c-0.6,5.5-0.1,6.6-2.1,13.4C616.9,978.2,608.6,991,598.2,999.1L598.2,999.1z M590.4,850.8
			c-1.7,0.1-11-2.3-13.3-2.9c-1.7-0.4-2.8-0.5-4.4-0.9c-2-0.5-2.7-0.4-4.5-0.8c-7.7-1.4-15.8-3.1-23.7-3.5
			c-8.8-0.4-17.4-1.4-26.3-1.2c-13.1,0.3-23.6,0.4-36.9,3.1c-12.9,2.6-25.1,6-38.3,12.1c3.4,4.4,6,9.2,9.7,13.9
			c13.9-6.4,32.9-10.9,48.1-12c9.5-0.7,20.5-1.4,30-0.4l29.9,3.5l-23.3,1.4c-20.7,1.5-40.6,6.3-59.9,14.9c-3.4,1.5-9.4,4.3-12.6,6.8
			c0.7,0.4,6.5,6.2,7.9,7.4c2.5,2.3,5.7,4.5,8,6.9c5-3.7,15.4-7.5,21.4-10c17.1-6.9,34.3-11.5,52.3-14.3c20-3.1,40.9-2.1,60.6,3
			c3.2,0.8,6.3,2,9.7,3.1c5.9,1.9,11.6,4.5,17,7.4c1.7,0.9,0.8,1,2.5,0.9l-3.1-16.7c-3.3-16-8.1-20.7-20.9-31.7
			c-12.5-10.8-26.7-19.1-41.5-25.8c-1.5-0.7-2.4-0.9-4-1.7c-2.8-1.3-4.9-2-7.7-3.2c-1.4-0.6-2.3-0.8-3.7-1.3
			c-17.8-6.9-36.6-11.2-55.2-14.7c-1.5-0.3-2.7-0.2-4.2-0.5l-8-1.3c-5.5-0.7-10.5-1.3-16.1-2l-24.2-2.3c-2.7,0-5.4-0.2-8.1-0.4
			l-16.2-0.5c-3.8,0-13.6-0.8-16.7,0.5c0.7,1.5,0.6,2.4,1.1,4c1.1,3.9,1.4,9.8,3.6,13.2c3.6-1.7,12.8-2.4,17-2.9
			c9.8-1.2,19.4-1.7,29.2-1.8l12.3,0.4c1.7,0.2,2.5,0,4.2,0.2c1.5,0.2,2.6,0.3,4.2,0.5c2.8,0.3,5.4,0.1,8.1,0.7
			c1.7,0.3,2.3,0.6,4.1,0.8c11,1.3,21.8,4.5,32.3,8c4.8,1.6,16.4,5.5,19.8,8.3c-2.3,0.1-5.3-1.3-7.6-2c-7.6-2.1-15-3.6-22.9-4.6
			c-5.3-0.6-10.2-1.6-15.4-1.6l-25.5,0.4c-12.9,1-25.3,3.3-37.9,6.3c-4.8,1.1-11.7,2.9-16.3,5c1.3,1.7,3.1,6.8,4.1,9
			c1.1,2.4,3,6.8,4.8,9.1c2.9-1.3,7.3-2.6,10.2-3.3c13.4-3.4,26.6-5.4,40.2-6.4c6.4-0.5,13.1-0.2,19.6,0l12.9,1.3c0.1,0,0.2,0,0.3,0
			l20.8,3.1c9.2,1.2,24.3,5.4,33.5,8.5l9.4,3.1C582.9,847.7,588.9,849.6,590.4,850.8L590.4,850.8z M478.5,455.4
			c0,0.8-0.1,0.3,0.1,1.3c0.1,0.4,0.2,1,0.3,1.3c0.2,0.9,0.3,1.6,0.6,2.7c0.4,2,0.7,3.5,1.1,5.3c1.7,8.5,2.5,17.7,2.6,26.4
			c0.1,6.9-0.6,13.8-1.4,20.7c-2.9,24-15.2,46.2-30.8,64.3c-10.2,11.8-21.2,23.2-34,32.3c-2.4,1.7-3.6,1.6-5.7,0.9
			c-1.8,5.6-8.7,34.3-9.8,40.8l-4.7,27.8c-1.1,9.2-3,19.1-3.3,28.3l-1.3,20.4c-0.5,12.7,0.3,22.9,0.5,35.3c0.1,5,0.9,9.5,1.3,14.5
			c0.2,2.6,0.6,4.4,0.9,7c3.3,25.6,10.6,50.8,23.2,73.6c3,5.4,11.6,18.5,15.4,23.1c1.4,1.7,1.7,1.5,3.2,3.3
			c6.9,8.3,13.6,15.6,22,22.3c4.3,3.4,8.5,7,12.8,9.8c2.2,1.5,4.1,2.8,6.3,4.2c13.9,8.7,24.7,14,39.9,19.8
			c6.4,2.5,13.6,4.6,20.5,5.5l7,1.2c20.4,2.5,37.6,1.3,57.5-6c1.8-0.7,5.9-2.7,7.5-3.1c-1.7-7.9,1,1.3-26.8,3.3
			c-3.4,0.2-6.2,0.4-9.5,0.6c-3.2,0.2-6.3,0.2-9.5,0.1l-18.8-1.1c-3.3-0.4-6.1-0.8-9.3-1.1c-6.3-0.7-12.3-2.5-18.4-4.2
			c-6-1.6-12.5-4-18.1-6.8c-13.9-6.9-23.6-13.5-35.2-24.1c-24.5-22.5-41.9-52.9-51.3-78.7c-4.7-13-8.1-26.5-9.9-39
			c-1.6-11.1-3.1-27-1.6-38.3l0.3-3.9c0.4-10.6,4.3-27.7,7.8-37.5l5.1-13.7c3.6-9.2,8.4-18,13-26.7c8-15,17.8-29.3,26.3-44l10.2-18
			c6.2-11.7,12.4-23.4,17.2-35.7c6.8-17.5,11.7-36.5,10.3-55.4c-1.2-16.5-3.9-32.7-9.4-48.4C481.6,463,480.1,457.9,478.5,455.4z
			 M478.5,455.4c0-0.8,1,0.5-0.5-1.4C478,454.7,477.4,453.8,478.5,455.4L478.5,455.4z M478.1,453.4l-0.2,0
			C477.9,453.4,478,453.4,478.1,453.4L478.1,453.4z M382,492.4c-0.1-1.7-0.8-2.8-1.5-4.4c-4.2-10.3-8.6-19.6-14-29.8
			c-3.8-7.2-8.6-15.1-13.8-21.9l-6.1-8.6c-1.5-1.8-1.9-1.7-3.5-3.6c-11.5-14.3-22.8-23.7-36-33.5c-2.4-1.8-4.9-3.3-7.2-4.9
			c-2.7-1.8-4.8-3-7.6-4.6c-13.2-7.7-31.3-15.8-45.8-19.9c-16.6-4.6-34-6.8-50.3-12.7c-17.7-6.5-34-18.1-48.3-31.2
			c-12.1-11.1-17.7-19.2-26.6-32.3c-3.7-5.5-6.9-11.9-9.5-17.1C88.4,219.5,92.5,164,129.7,126.2c2.6-2.6,4.5-4.3,7.9-7.2
			c1.8-1.5,1.7-2.1,3.6-3.4c13.3-9,23.1-14.7,38.2-19.1c8.3-2.4,16.5-3.9,24.9-4c2.7,0,5-0.1,7.8-0.1l8.1,0.5
			c16.3,2.1,32.6,7.2,45.8,17.5c7.5,5.9,15.5,13.8,20.6,22.4c6.2,10.4,11.4,21.5,12.9,33.5c1,8.2,1.5,16,0.5,24.2
			c-2.5,20.6-13.9,40.2-32.5,50.6c-6.3,3.6-11,5.6-16.9,7.3c-10.8,3.1-21.6,3.5-32.4,1c-17-3.9-33.7-18.6-38.2-36.5
			c-1.5-5.9-2.4-10.4-2.1-16.2c1.1-18.5,12.1-34.1,31.6-38.4c40.2-8.8,53.7,44.5,20.8,50.9c-9,1.8-17.5-3.6-19.5-13.1
			c-2.8-13.6,12.7-19,13.1-22.2c-0.6-2.7-3.7-3.7-5.7-4.1c-15.5-3.3-30,16.1-24.6,33.6c1.2,3.8,4.2,10.3,8.3,14.2
			c3.3,3.3,8.2,6.3,12.1,7.8c8.3,3.2,17.6,3.1,26.1-0.1c10.1-3.8,18.6-12,22.7-20.6c14.4-31-12.8-68.5-50.4-63.8
			c-13.1,1.6-16.8,4.8-27.4,10.8c-3,1.7-9.6,8.9-11.4,11.4c-25.7,35.6-3.7,88.1,36.6,98.9c2.3,0.6,4,1,6.3,1.6
			c10.5,2.6,29.5,1.9,39.4-2.7c0.6,1.4,0,1.9-0.4,3.2l-2,9.2c-4.6,37.4,20.1,64.5,46.3,88.4c11.1,10.2,23.3,21.3,34.2,32.1
			c33.6,33.5,61,72.5,70.2,118c2,9.8,2.8,19.3,3.3,29.1l0.1,15.7c-0.1,1.4,0,2-0.1,3.2c-0.5,8.5-0.8,17.1-2.6,25.4l-9.5,45.8
			c-0.5,2-1,4-1.3,6c-0.3,2.2-0.9,4.2-1.4,6.3l-4,24.6l-4.7,50.3c0,2.2-0.2,4.1-0.2,6.2c-1,48,6.2,102.1,33.4,143
			c9.2,13.8,20.3,26.8,32.8,37.6c3.8,3.3,7.3,6.1,11.3,9.1c7.3,5.7,15.6,10.3,23.6,14.9c27.2,15.6,66.8,26.6,98.7,18.8
			c4.6-1.1,8.5-2,13.2-3.7l13-5.3c0.8,1.7,1,3.6,1.2,5.4c0.2,2,0.4,3.4,0.8,5.3l-1.4,1.1l1-0.2c1.6,3.4,0.7,12.8-0.3,15.9
			c-4.5,2.1-21.8,3.9-27.5,4c-1.9,0-3.3,0.3-5.3,0.4c-17.2,1-39.1-0.9-55.8-4.8c-19.2-4.5-36.2-9.9-53.7-18.9
			c-16-8.2-30.8-17.9-44.2-30.2c-7.2-6.6-18-17.1-24-24.7c-4.5-5.7-9.8-11.7-13.8-17.7c-20.7-31.6-33.1-55.5-43.9-90.8
			c-1.2-4-2.3-7.4-3.3-11.2l-6.3-27.5c-5-27.7-6.6-52.7-6.2-80.9l0.9-16.2c0.4-12.1,2-24.7,4.5-36.6c0.7-3.2,0.9-7.2,1.3-10.6
			l1.4-26.5c0-1.9,0-3.3-0.1-5.2c-1.1-15-3.5-29.9-9.9-44.2c-7.7-17.3-17-31.1-31.2-43.9c-1.5-1.4-3.3-2.8-5-4.2l-14.4-10.4
			c-3.3-2.1-6.6-3.9-10.1-5.6c-7.8-4-17.1-7.7-26-5.8c-1.2,0.3-1.4,0.3-2.7,0.9c-0.9,0.5-0.4,0.2-1.2,0.8l-0.9,0.6
			c-2-0.2-18.6-13.3-42.7-10.5c-21.3,2.4-41.1,14.7-51.6,33.8c-1.1,2-1.8,3.2-2.6,5.2c-2,5.3-3.6,10.4-4.3,16.1
			c-0.2,1.9-0.6,3.6-0.6,5.5c0,18.5,9.9,37.9,25.8,47.4c3.6,2.2,6.6,3.4,10.5,4.9c10.5,4.1,22.7,3.3,33-1
			c12.3-5.1,21.3-14.9,25.5-27.3c2.5-7.2,2.9-14.4,0.8-21.7c-1-3.6-2.2-7.9-5.1-11.7c-5.5-7.4-11.6-12.4-20.1-14.3
			c-7-1.6-14.5-2.6-22.2,2.6c-5.2,3.5-10.5,8.2-11.1,14.6c-0.2,2.4-0.2,3.1,1.9,4.8c9.1-4.2,13.4-10.3,24.3-6.9
			c1.7,0.5,4.1,1.9,5.5,2.9c14,9.8,11.5,30.6-3.1,38.6c-8,4.4-15.2,5.5-23.5,2.6c-8.7-3-14.6-6.8-20.3-17.1
			c-17.6-31.7,16.5-69.6,53.8-61.7c29.9,6.3,51.6,37.9,48.5,68.1c-1.3,12.2-5.7,22.7-12.7,33.3c-10.6,16.1-26.7,27.5-44.2,32.9
			c-15.5,4.8-31.4,4.9-46.7,0.6c-35.1-9.9-62.9-39.9-71.7-74.1c-4.4-17.1-4.3-33-1.3-49.4c1.2-6.8,3.4-13.3,5.8-19.8
			c3.4-8.8,9.4-19,15.4-27.1c19-25.6,44.4-42.6,75.1-51.1c9.6-2.7,19.6-4.2,29.6-4.5c5.7-0.2,11.6-0.3,17.2,0.4
			c2.1,0.3,3.7,0.5,5.8,0.7c2.1,0.3,3.2,0.8,5.4,1l5.7,1.1c21.9,5.3,42.5,14.5,60.7,28.4c11.1,8.5,22.4,18.6,31.2,29.6
			c6.5,8.1,12.3,16.5,17.3,25.6c9.6,17.3,16.3,35.6,20.1,54.6c0.4,2.2,0.5,3.4,0.9,5.7c2.8,13.5,3.3,27.7,2.7,41.4l-0.7,8.4
			c-0.1,0.7-0.1,0.9-0.1,1.6c-0.5,6.3-1.8,12.4-2.7,18.6c-0.8,5.2-3.8,17-5.2,22.5c-1.4,5.5-2.9,11.4-3.6,17.2l-2.4,14.4
			c-1.6,8.4-2.4,17.1-3.5,25.6l-2,28.8c0,1.9-0.1,3.6-0.2,5.5c-0.4,7.9,0.2,15.6,0.4,23.5c0.9,35.7,11.6,76.8,27.5,108.3
			c5.2,10.4,15.2,28.2,22.4,37.3c3.4,4.3,5.9,8.2,9.5,12.9c4.4,5.6,15.9,18.3,20.4,22.6c3.7,3.5,7.1,6.7,10.5,9.7
			c6.8,6,14.3,11.5,21.2,15.9c10.4,6.6,21.7,11.9,33.2,16.4c3.3,1.3,7.5,2.7,11,3.6c7.6,2,15.1,3.7,22.9,4.7
			c5.8,0.7,11.5,1.4,17.4,1.5l11.4-0.1c2,0,3.8-0.1,5.9-0.2c5.9-0.3,11.7-0.9,17.5-2.1c4.7-1,13.9-1.7,17.8-4.2c-2.1-0.1-5,1-7,1.4
			c-2.3,0.5-4.3,0.9-6.7,1.3c-9.5,1.9-30.2,3.7-40.4,2.8c-24.5-2.2-41.7-6.2-64.7-17c-34.5-16.3-61.2-46.5-82.5-78.5
			c-8.9-13.4-16.2-28.3-22.5-42.9c-2.1-4.9-3.6-9.1-5.4-14c-4-11.4-7.1-23-9.5-34.7c-1.8-8.9-3.3-18.1-3.9-27.2
			c-1.1-15.5-2.1-31.2-1.1-46.7l0.9-13.3c0-4.2,0.9-8.3,1.2-12.6l0.1-0.6c0-0.1,0.1-0.7,0.1-1c0-0.1,0-0.2,0-0.3l5.4-34.9
			c0.2-1.5,0.2-1.6,0.6-3.2l5.8-26c2.7-10,5.1-20,6.4-30.2l0.1-0.6c0-0.1,0-0.2,0-0.3l0.1-1c0-0.1,0-0.2,0-0.3c0-0.1,0-0.2,0-0.3
			l1.1-13.2c0.6-6.6,0-13.3-0.1-19.9c-0.3-13.6-2.9-27.7-6.4-40.9c-7.2-27.4-18.4-48.7-36-71.3c-14.3-18.3-29.5-30.1-48.3-42
			c-11.7-7.5-24.8-12.6-38-16.8c-19.2-6-39.7-7.7-59.6-5.3c-2.4,0.3-4.3,0.8-6.6,1.1c-8.6,1-19.6,4.4-27.7,7.7
			c-4.9,2-9.3,3.9-14.1,6.3c-2.2,1.1-4.9,2.5-7,3.8c-2.3,1.4-4.9,3.2-7,4.2c-4.9-7.4-2.8-5.8-9.6-14.5
			c-8.2-10.5-18.6-17.8-30.5-22.4c-19.6-7.6-42.6-4.3-60.2,7.3l3.6-5.7c16.3-21.1,43.5-35.5,68.6-40.5c9.9-2,23.9-2.7,33.8,0.5
			c1.8,0.6,1.2,0.5,2.7,2c12.8,13.4,33.5,29.4,50.7,35.9c7.7,2.9,15.5,5.4,23.5,7.3l17.8,3.8c2.1,0.5,4,0.8,6,1.3
			c2.1,0.5,3.8,0.9,6,1.4c6,1.4,12.2,3.1,17.9,5.6c1.9,0.8,3.6,1.3,5.6,2.1c11.9,4.6,23.8,10.1,34.7,17.3c7.6,5,15.4,10.5,22.4,16.5
			c5.5,4.8,11.4,10.1,16.3,15.6c1,1.1,1.7,2.3,2.8,3.4c4.7,4.6,11.8,14,15.3,19.7c0.7,1.2,1.7,2.1,2.4,3.2
			c7.7,11.5,15.4,26.7,20.6,39.4C379.8,487.9,380.9,491,382,492.4L382,492.4z M368,177.8c-2,1.7-5.4,7.5-7,9.9
			c-5.2,7.8-7.5,12.8-11.5,20.4c-6.2,11.6-12,29-15,41.8c-0.4,1.8-1,3.5-1.2,5.4c-0.3,2.1-0.7,3.3-1,5.4l-1.6,10.6
			c-0.8,6.7-1.4,14.8-1.2,21.7l0.2,11.1c0.1,3.7,0.4,7,0.6,10.8c1.4,19.6,8,49.5,15.7,67.4c2.2,5.1,9.5,11.3,13.2,15.9
			c2,2.5,3.2,3.5,4.9,5.5c15.1,18.1,21.3,28.6,32.5,47.7c5.5,9.3,11.2,24.4,14.6,34.7c4.9,14.7,7.1,29.7,8.2,45
			c3.8-4.7,7.3-14.6,9.2-20.4c1.8-5.4,2.2-9.2,3.2-13.9l1.5-18.1c1-26.9-7.2-52.8-17.6-78.1c-3.1-7.6-6.3-15-10.1-22.8l-16.7-34.7
			c-9.5-21.1-13.1-35.7-18.8-56.4l-2.5-11.1c-3.8-18.7-5.7-36-5.4-55.1c0.1-4,1.1-18.9,1.8-21.6c0.9-3.3,1.2-9.1,3.1-15.9
			C367.2,181.8,368,178.9,368,177.8z M368,177.8l0.6-0.8L368,177.8z"/>
		<path class="st1" d="M220.2,114.9l-12.6,2.1c-22.2,4.5-49.9,17-64.8,34.3c-5.5,6.4-11.6,16-14.3,23.7c-1.1,3.1-3,8.9-3.4,12
			c-0.3,2.3-0.8,3.7-1.1,6.1l-0.6,9.4c0,14.2,0,20.3,4.1,35c3.8,13.9,11.5,28.4,21.7,40.8c11.1,13.4,31.4,28.2,45.8,35.8
			c4.2,2.2,7.5,4,11.6,6l12,5.5c3.8,1.9,8,3.1,12.1,4.9c30.3,12.8,57.3,29.8,81.9,52.3c1.8,1.6,3.5,3.3,5.5,5.3
			c4.6,4.4,7.4,8.4,11.2,12.5c1.9,2.1,5.1,4.1,4.4,6.4c-7.1-9.2-15.2-16.4-22.9-23.2c-7.7-6.8-15.6-12.2-23.9-18
			c-3.9-2.7-7.7-5.1-11.8-7.6c-3.9-2.4-8.3-4.7-12.2-6.9c-10.8-6.2-25.1-12.4-36.7-16.9c-10.8-4.2-14.1-5.3-24.8-10.4
			c-46.4-22.1-82.7-58.3-83.8-112.3c-0.2-7.6,0.5-18.3,2.3-25.8c6.5-25.8,21.8-44.1,46.1-56.3c14.8-7.4,25.6-10.7,40.8-13.5
			C209.6,115.4,218.3,114.3,220.2,114.9z"/>
		<path class="st1" d="M100.5,504.9c-0.1-1.7,0.2-3,0.7-4.8l2.7-9.4c3.2-9.5,4.4-13.6,9.2-23.6c16.9-35.5,44.6-64.9,85.1-69.7
			c3.4-0.4,6.4-0.8,9.9-1l19.8,0.6c24.9,3.1,45.9,11.9,65.7,30.1c15.2,14,21.2,23,30.5,40.5c5.6,10.6,11.5,24.8,14.4,36.3
			c0.5,1.9,1.2,3.5,1.1,5.3l-3.5-9.9c-11.1-26.7-22.4-48.5-45.2-68.3c-10.9-9.5-23.6-16.8-35.2-21.3c-16.9-6.6-37.9-8.8-56.2-6.5
			c-30.1,3.7-55.5,21.5-73.2,47.5c-7.6,11-14.1,23.4-19.1,35.8L100.5,504.9z"/>
		<path class="st1" d="M385.6,613.7c0.1,1.4-0.9,4.8-1.3,6.4l-8.6,45.5c0,0.1-0.1,0.5-0.1,0.6l-2.2,19c-1.7,28.7-2.1,58.8,2.8,87.4
			c2.6,15.4,3.8,24.5,8.1,41.1l4,13.9c-4.9-6.3-11.3-31.3-14.2-41.5c-2.8-10.3-6.7-36.2-7.4-47.5c-0.1-1.5,0-1.7-0.2-3.3
			c-0.6-6-0.4-17.2-0.4-23.5l0.4-10.1c0.1-1.2,0.3-2,0.4-3.2l0.5-6.8c0.5-3.8,0.4-8.3,1.3-13.2l1.1-6.4c0.3-2.5,0.9-4.2,1.2-6.7
			c0.5-4.7,4.5-20.7,5.9-26c1.2-4.4,2.4-8.5,3.9-12.9C381.6,623.8,384.1,615.6,385.6,613.7z"/>
		<path class="st1" d="M353.3,608.8c0,0.9-0.3,2.1-0.6,3.2l-2.9,13.3c-2.1,11-4.1,26.2-5.3,37.2l-1.5,27.2c0,1.4-0.1,2-0.1,3.2
			l0.7,31c0.4,12.2,3.1,29.2,5.7,41.8c2.9,14.5,9.3,36.4,15.2,49.8c1.9,4.3,4.3,10.8,7.5,14.9l-0.4,0.3c-6.4-8.1-11.9-20-15.9-29.3
			c-7.5-17.5-14.1-42-16.4-60c-0.2-1.3-0.3-2.3-0.4-3.6l-1.8-38c0-1.7,0.1-2,0.2-3.6c0.2-5.9,0.5-14.5,1.2-20.4l6.8-40.2
			C346.2,631.2,351.2,611.4,353.3,608.8z"/>
		<path class="st1" d="M387.7,382.9c-2.9-3.7-8.3-13.8-10.7-18.3c-7.8-14.5-13.8-29.3-19.3-44.7c-5.9-16.6-7.5-26.2-9.7-43.6
			c-0.4-2.8-0.4-5.5-0.6-8.5c-0.2-5.1-0.4-16.3,0.1-21.2c0.2-1.7-0.1-3,0.4-4.5c0.8,1.6,1.8,14.9,2.1,17.2
			c2.7,22,6.8,40.3,14.3,61.1c3.1,8.7,5.8,18.2,9.3,26.6l13.9,35.3c0,0.1,0,0.3,0,0.3C387.6,382.7,387.6,382.8,387.7,382.9z"/>
		<path class="st1" d="M380.9,400.3L370.5,387c-7.7-10.5-17.8-30.3-21.7-41.5c-4.8-13.7-7.2-25.8-7.7-39.7c-0.1-2.2-0.7-11.3,0.6-13
			c0.1,2,0.6,4.3,0.9,6.3c0.9,6.9,2.6,13,4.2,19.7c1.8,7.7,5.7,19.7,8.6,26.8c6.7,16.6,13.9,31.8,21.9,47.7
			C378.4,395.5,379.4,398.3,380.9,400.3z"/>
		<path class="st1" d="M403.2,698.1c-0.7-10.1,3.4-27,6.9-36.6c1.6-4.3,3.1-7.7,5.2-12.1c6.2-13.1,18.2-29.5,27.8-40.6
			c1.3-1.5,3.5-4.4,5.4-5.8L419,655.7c-3.3,6.5-5.1,11.1-7.8,17.9c-3.1,8.1-3.7,11.1-6,18.2C404.6,693.6,404.3,696.7,403.2,698.1z"
			/>
		<path class="st1" d="M275.2,602.4c0-1.4,5.4-13.4,6.3-15.8l5.2-16c0.5-2,0.9-3.4,1.5-5.4l1.2-5.7c0.3-2.1,0.7-3.4,1-5.4l1.1-13.6
			c0-9.8,0.2-12.6-1.2-22.6c0-0.1-0.2-1.3-0.2-1.3c0-1.1-0.3-0.6,0.3-1.6c0.3,1.3,1.6,4.3,2.1,5.8l3,11.5c0.3,1.8,0.6,3.8,0.8,5.6
			C298.4,562.4,290.8,583.1,275.2,602.4z"/>
		<path class="st1" d="M285.1,625.5l-11.4,7.9c-0.1,0-0.2,0.1-0.3,0.1c2.4-3,5.4-5.7,8-8.8c9.3-11.3,16-22.8,19.9-36.7
			c0.5-1.7,0.8-3,1.3-4.7c0.5-1.8,0.7-3.1,1.1-4.8c1.2-4.5,2.5-18.7,2.7-19.5c1,2.1,1.2,6.4,1.5,8.7c0.7,5.6,0.1,8.5,0.1,13.1
			c0,3.3-1.4,9.4-2.3,12.8C302.5,605.1,294.9,617.8,285.1,625.5z"/>
		<path class="st1" d="M66.6,335.8c12.8-8.4,24.8-12.4,36.9-13.9c10-1.3,20.6-1,30.6,0.2c1.6,0.2,3,0,4.4,1L91.7,330l-20.5,5
			C69.5,335.6,68.3,336.3,66.6,335.8z"/>
		<path class="st1" d="M172.7,262.9c4.2-0.3,28.5,7.9,35.3,9.8l17.7,4.1c1.7,0.3,2.4-0.1,3.8,1c-1.8,0.8-5.3,1-7.3,1.2
			c-10.7,0.8-18.8-0.7-28.8-4.6c-2.5-1-4.7-1.8-7.1-3.2c-2.5-1.4-4.3-2.2-6.7-3.7l-5.1-3.3C173.4,263.4,173.6,263.7,172.7,262.9z"/>
		<path class="st1" d="M101.1,343.7c14.8-11.6,33.8-13.1,49-6.3c2.5,1.1,4.3,1.4,6.7,3.4c-2,0.1-4.4-0.4-6.8-0.4
			c-2.3,0-4.2-0.5-6.8-0.5l-14-0.4c-10.3,0.2-16.9,1.7-26.2,4C102,343.7,102,343.7,101.1,343.7z"/>
		<path class="st1" d="M180.2,281.4c0.9-0.1,21.4,5.1,27,5.8l13.4,2.3c4,0.7,10.4,0.7,13.8,1.9c-7.7,3.6-19.8,2.9-27.9,1.9
			C197.4,292.2,187.5,287.3,180.2,281.4z"/>
		<path class="st1" d="M295.3,646c-3.9,3-12,8.6-15.6,7.5c9.1-7.1,13.3-12.8,18.5-20.2c3.1-4.4,6.1-10.7,7.7-15.7
			c0.7-2.2,0.8-3.7,1.7-5.7c1,2.1,1,6.7,0.7,8.9c-0.2,1.6-0.3,2.6-0.5,4.2C307,631.4,301.6,641,295.3,646z"/>
		<path class="st1" d="M199.2,301.3c1.6-0.5,8.3,1.5,10.5,1.8l16,2.6c2,0.2,3.5,0.4,5.5,0.7c2.9,0.4,8.5,0.7,10.9,1.5
			c-3.8,2.5-12.1,3.4-16.7,3.4C215.7,311.6,207.4,307.9,199.2,301.3z"/>
		<path class="st1" d="M127.4,355.1c8.1-6.3,16.7-7.7,24.9-3.8c3.3,1.6,4.3,2.6,7.5,5.2c-2,0.9-5.9-0.2-8.1-0.5
			C146.8,355.4,127.4,355.1,127.4,355.1z"/>
		<path class="st1" d="M601.5,953.6c1-0.7,5.9-2.4,7.5-2.3c-1.2,0.8-2.4,1.1-3.8,1.6l-2.7,0.8C601.8,953.7,602,953.6,601.5,953.6z"
			/>
		<path class="st1" d="M100.5,504.9c0.1,1.4,0.4,0.9-0.6,2.2C99.8,505.7,99.5,506.3,100.5,504.9z"/>
		<path class="st1" d="M382,492.4l0.8,1.1l-0.4,0.3C381,491.8,382.1,493.2,382,492.4z"/>
		<path class="st1" d="M385.6,613.7c-0.1-1.2-0.3-0.5,0.5-1.6C386.2,613.4,386.4,612.7,385.6,613.7z"/>
		<path class="st1" d="M609,951.2c1.7-1.3,0.7-0.5,1.4-0.5C608.6,952.1,609.7,951.3,609,951.2z"/>
		<path class="st1" d="M383,495.1c-0.7-0.1-0.5-1.7-0.1-0.6C382.8,494.5,384,495.2,383,495.1z"/>
		<path class="st1" d="M383.4,496.5c-0.7-0.1-0.5-1.7-0.1-0.6C383.3,495.9,384.5,496.6,383.4,496.5z"/>
		<polygon class="st1" points="353.3,608.8 353,608.4 353.7,608.4 		"/>
		<polygon class="st1" points="387.7,382.9 387.9,383.3 387.3,383.3 		"/>
		<polygon class="st1" points="590.4,850.8 590.8,850.6 590.8,851.2 		"/>
		<polygon class="st1" points="221.2,114.7 221.6,114.4 221.6,115.1 		"/>
		<path class="st1" d="M383.6,497.5l0-0.2C383.7,497.3,383.7,497.5,383.6,497.5z"/>
		<path class="st1" d="M220.2,114.9l1-0.2L220.2,114.9z"/>
	</g>
</g>
<g>
	
		<image style="overflow:visible;opacity:0.5;" width="1159" height="1130" xlink:href="25FF5F80.png"  transform="matrix(1 0 0 1 226.2421 0)">
	</image>
	<g>
		<path class="st1" d="M387.8,135.7c286.1-33.6,645.8,56.5,867.8,208.7c-88.7,446.5-467,654.4-619,656.2
			C547.5,944.4,256.4,562.9,387.8,135.7z"/>
		<path class="st2" d="M387.8,135.7c286.1-33.6,645.8,56.5,867.8,208.7c-88.7,446.5-467,654.4-619,656.2
			C547.5,944.4,256.4,562.9,387.8,135.7z"/>
	</g>
</g>
<path class="st3" d="M412.2,166.9c266.2-31.3,600.9,52.5,807.5,194.2c-82.5,415.5-434.5,609-575.9,610.6
	C560.8,919.4,289.9,564.5,412.2,166.9z"/>
<linearGradient id="SVGID_1_" gradientUnits="userSpaceOnUse" x1="418.1595" y1="802.5184" x2="1000.6732" y2="802.5184">
	<stop  offset="0" style="stop-color:#556F6D"/>
	<stop  offset="1" style="stop-color:#000000;stop-opacity:0"/>
</linearGradient>
<path class="st4" d="M430.3,759l115.4,117.4l94.3-22l3.9,2l80.8,9.6l105.8,43l40.7,34.4l29.2-65.2l100.3-151.2
	c-2.7-0.4-2.6-0.8-5,0.4h-82.5l-141.7-44.3l-168.8-21.8l-110.3,29.3l-66,51.8l-8.2,17.2l16.5,2.7L430.3,759z"/>
<polygon class="st1" points="982.2,340.9 1046.7,316.9 1066.9,348.4 1066.9,424.1 1033.9,516.4 989.7,559.9 941.7,569.6 
	979.9,512.6 1010.7,396.4 "/>
<g>
	
		<image style="overflow:visible;opacity:0.5;" width="938" height="1074" xlink:href="25FF5F87.png"  transform="matrix(1 0 0 1 273.2421 158)">
	</image>
	<g>
		<g>
			<path class="st5" d="M998.2,338.3c4.3-4.2,28.7-12.6,35.4-13.6c17.4-2.7,20.1,10.7,23.5,25.1c12.6,53.6-3.2,127.9-38.9,172.3
				c-11.4,14.2-44,41.9-63.3,37.2c0.3-0.6,16.4-15.5,19-18.6c6.1-7.1,12.1-16.1,16.9-24.1c25.3-43,35.9-108.7,22.7-157.4
				C1007.6,337.6,1003.4,343.1,998.2,338.3L998.2,338.3z M635.5,637.5c-2.9,0.7-2.3,0.3-5,1.3c-0.5,0.2-3.8,1.6-4.7,2
				c-4.7,1.7-5.2,0.7-9.4,1.5l-1.4,7c-17.8,3.7-31.2,0.9-64.4,9.6c-42.8,11.2-74.4,27.8-107.7,56.2c-9.8,8.3-37.9,37-41.9,47.8
				c2.7,3.4,60.2,48.6,75.5,63.4c13,12.7,37.2,37.4,47.6,52.5c3.1,4.5,10.6,16.7,13.7,19.6c10.1-2.8,38.9-17.4,47.6-16.1
				c14,62.5-34.4,128.6-9.9,189.7l2.9,4.5c5.7,1.7,9.1,3,10.8,8.2c6.6-7.1,6.9-2.1,13.7-0.7c2.6,0.6,1-1,4.4,1.3
				c-0.4,3.9-2.2,7.1-0.8,9.3c3.9-2.2,12.2-13.7,15.1-18.8c5.6-9.7,8.9-18.7,11.1-29.8c11.9-61.1-18.8-90.1,7.2-174.1
				c-11.8,6.4-12.7-1.4-18-6.2c-6.9,3.4-7.6,4.9-15.1,0.7c-3,5.5-0.1,5.9-4.7,7.2c-5.5-3.7-1.9-1.4-1.6-9.3c-6.6,1.2-11,0.7-13.8-6
				c-14.2,3.3-27.4,10.8-40.3,14.6l-5.1-6.9c9.5-8.5,35.8-19.4,47.2-21.4c5.1-0.9,12.5-2.9,17.2-5c-25.9-5.1-51.4,2.3-72.8,14.5
				c-2.1-2.4-6.3-7.7-7.1-10.1c14.1-9.1,20.4-13.4,36.7-20.1c9.8-4,36-10.4,41.4-13.5c-11.5-2.6-36.7,0.4-48.1,4
				c-7.2,2.3-13.6,4.7-20,8.1c-4.9,2.6-15.9,9.8-19.4,11.2c-3-3.3-5.6-5.6-7.7-9.4c24.1-21.2,57.6-32.9,88.3-41.5l6.4-2.3
				c-15.6-2.2-42.7,2.6-57.6,8.1c-21.6,7.9-28.8,13.6-46.6,25.9l-9.4-9c14.1-17.4,57.3-36.9,80.3-44.6c5.1-1.7,10.2-3.3,15.3-4.8
				c2.5-0.7,4.8-1.4,7.3-2.2l8.2-2.8c-18.2-1.9-49.9,5.1-67,11.8c-16.8,6.7-40.4,21.1-53.6,33c-4-1.5-7.5-5.6-11.2-8.5
				c6-11.6,47.2-34.7,59.7-40.5c10.9-5,61.3-24.9,69.4-24.3c-14.3-4.3-61.9,8.9-77,15.1c-34,13.9-53.5,35.1-63.5,40.5l-10.9-8
				c10.5-14.3,52.2-40.8,68.5-48.4c25.4-11.7,52.6-22.1,79.7-28.8c-23.2-2.2-67.6,10.8-88.6,20.5c-38.5,17.8-67.3,46.6-71.8,48.7
				l-4.3-3.4c2.5-9.9,45.5-42.6,56-48.4c21.7-12,46.9-21.7,71.4-26.1c141-25.2,263.1,45.2,379.3,58.2c23.5,2.6,60.6,3.4,77.6-16.2
				c17.2-19.7,7.9-59.2-3.2-78.9c-0.5,7.9,10.3,29.5,2,48.7c-18.1,42-123.1,3.6-155-5.2c3-11.9,21.8-46,28.6-58.4
				c3.5-6.3,19.3-35.7,25.3-38.8c10-5.1,4.8-1,11-10.3c8.5-12.7,51.3,18.5,106.1-41.6c30.3-33.2,46.4-80.4,51.4-124.5
				c3.2-28.2,4.3-104-30.9-113.7c-33.1-9-80.1,24.8-104.5,44.4c-30.4,24.4-58.4,62.1-70.7,99.2c-26.3,79.3,22.5,104.5,16.4,119.2
				c-5.2,12.4-1.2,7.4-2.5,16.7c-0.9,6.9-18.2,39-21.9,45.7c-6.2,11.2-25.6,47.2-33.1,54.4c-56.3-15.5-94.5-25.7-151.9-31.9
				c-13.9-1.5-34.6-0.9-46.7-3.1L635.5,637.5z"/>
			<path class="st5" d="M610.1,596.4c18.6-7.1,28.3,11.4,30.8,12.2c7.4-3,3.8-12.6,7.5-17.4c8.3-10.8,37.6-4.2,39.9-40.4
				c1.7-26.7-0.4-59.7-0.7-87.1c-0.3-29.2-0.6-58.1-0.4-87.1l0.8-65.7c0.5-14.4,2.4-18.2-2.9-20.3c-3.3,3.9-9.6,95.5-10,107.8
				c-1,24.5-6,67.5-8.1,96.2c-0.5,6.3,0.8,8.7-4,12.2c-4.1-4.2-1.7-19.4-1.7-25.9L661,301.3c0.1-5.8,1.6-10.6-2.9-12.9
				c-5.3,5-5.9,43.7-6.8,53.4c-2.1,23.9-12.4,158.5-16.5,162.6c-4.8-1.8-3.2-5.8-3-11.5l5.8-179.1c0.2-6.1,2.7-23.4-1.7-26.7
				c-5.5,3.6-4.8,19.5-5.6,26.3l-20.5,164c-0.8,6-0.1,22.5-5.6,25.3c-4.8-3.1-1.5-19.7-1.3-25.7c0.3-9.2,0.9-18.4,1.1-27.5
				c0.5-32.5,3.2-76.5,4.5-110.3c0.4-9.2,0.8-18.4,1.1-27.5c0.2-5.6,3.6-23.6-1.6-26c-4.4,3.2-5.4,33-6.1,40.2
				c-1.5,14.1-3.2,28.2-4.8,42.3c-3.3,28.5-7.2,57-11,85.5c-3.7,28.4-8.5,57.5-11.4,85.9C569.8,588.1,612.1,572.6,610.1,596.4z"/>
			<path class="st5" d="M622.8,850.4l0.5,5c5.6,0,3.4-4.4,11.5-3.2c4,0.6,8.1,3.8,8.2,7c4.2-1.8,2.4-5,9.3-2.5l9.1,3.4
				c-0.4,5.4-2.1,5.3-0.5,9.5l33.6,2c3.7-4.9,3.1-8,5-13.9l4.2,1.2l-1.7,10c6.8-1.1,4.8,1,8.6,2.8c2.6,1.3,6.7,1.7,10.1,1.9
				c6.9,0.3,13.4,3.8,12.7,10.8c0.2-4.4,0.2-10.9,5.5-11.5c4.2,1.8,0.6,0.1,2.3,2.7l3.7,5.2c0.1,0.1,0.3,0.3,0.4,0.3
				c3.3,1.8,10.5-4.9,16.3,6.4c6.9-5,15.4-3.8,12,5.4c20.5,8.8,39.8,20,57.8,32.8c7.1,5,46.5,38.3,48.3,38.9
				c8-18.7,13.8-41.3,22.1-61.3c19.1-45.7,42.3-87.7,71.9-127.5c4.9-6.6,13.1-15.9,17-22.6c-17.2,9-55.5,53.5-68,71.1
				c-10.5,14.7-19.3,29.1-28.4,44.6c-8.4,14.5-17.6,35.7-26.7,48.7c-17-8.9-33.9-21.5-52.2-31c-20.1-10.5-39.9-19-61.5-25.8
				C718.1,849.5,659.7,841.5,622.8,850.4z"/>
			<path class="st5" d="M706,890.6c-5.3,8.7-14.3,18.8-20.6,27.6c-23.2,32.7-36,64.8-21.3,104.3c21.9-0.5,47.3-22.1,58.9-39.7
				c9.4-14.3,31.8-65.3,32.8-80.9c-5.2-2-3.2,4.7-14.2-4.6c-1.2,0.2-1.9,4.9-7.3,0.1c-2.5-2.3-2.5-5.4-1.7-8.1
				c-2.5,3.8-8,7.2-12.8,5.7c-3.1-0.9-4.1-2.9-6.3-3.5C711.8,891,710.8,892.2,706,890.6z"/>
			<path class="st5" d="M694.5,871.6l23,3.8c-2.4,5.9-7.5,10.8-11.5,15.1c4.8,1.6,5.9,0.4,7.5,0.8c2.2,0.5,3.2,2.5,6.3,3.5
				c4.9,1.5,10.3-2,12.8-5.7c-0.8,2.7-0.8,5.9,1.7,8.1c5.4,4.9,6,0.1,7.3-0.1c11,9.3,9,2.6,14.2,4.6c3.1-2.5,1.4-1.2,3.2-6.2
				c1-2.7,1.6-4.2,2.8-6.8l12,4.3c3.4-9.3-5.1-10.5-12-5.4c-5.9-11.3-13.1-4.6-16.3-6.4c-0.1-0.1-0.3-0.3-0.4-0.3l-3.7-5.2
				c-1.7-2.6,1.9-0.8-2.3-2.7c-5.3,0.6-5.4,7.1-5.5,11.5c0.7-7-5.8-10.6-12.7-10.8c-3.4-0.1-7.5-0.6-10.1-1.9
				c-3.8-1.8-1.8-3.9-8.6-2.8l1.7-10l-4.2-1.2C697.5,863.7,698.2,866.7,694.5,871.6z"/>
			<path class="st5" d="M622.8,850.4c-6.4,0.8-12.8,2.6-19.1,3.2c-6.3,0.6-10.3,3.4-17,4.7c2.8,6.7,7.2,7.2,13.8,6
				c-0.3,7.9-3.9,5.6,1.6,9.3c4.6-1.3,1.8-1.7,4.7-7.2c7.4,4.2,8.2,2.7,15.1-0.7c5.2,4.8,6.1,12.6,18,6.2c4.5-2.2,16.3-1.5,21-2.3
				c-1.6-4.2,0.1-4.1,0.5-9.5l-9.1-3.4c-6.9-2.5-5.1,0.7-9.3,2.5c-0.1-3.2-4.2-6.4-8.2-7c-8-1.2-5.9,3.2-11.5,3.2L622.8,850.4z"/>
			<path class="st5" d="M610.1,596.4c-0.3,6.2,0.6,5.7,3.8,10.4c3,4.4,1.7,5.9,1.7,11.2c0.1,6.3-1.1,19.9,0.7,24.2
				c4.2-0.8,4.7,0.2,9.4-1.5c0.9-0.3,4.3-1.8,4.7-2c2.7-1,2.1-0.5,5-1.3c1.5-9.2,1.8-20.9,5.5-28.9
				C638.4,607.7,628.7,589.3,610.1,596.4z"/>
			<path class="st5" d="M606.5,1094.6c-1.4-2.2,0.4-5.4,0.8-9.3c-3.4-2.3-1.8-0.7-4.4-1.3c-6.8-1.5-7.1-6.5-13.7,0.7
				c-1.7-5.2-5.1-6.5-10.8-8.2c3.5,11.3,10.3,18,18.7,26.5L606.5,1094.6z"/>
		</g>
	</g>
</g>
<path class="st1" d="M680.2,464.9c4.8,72.1,15.8,112.9-62.7,109.7c-36.1-1.5,3.7-1.2,31.5-20.9c6.7-4.7,13.8-13.7,18.3-24.8
	C678.4,501.4,679.7,457.1,680.2,464.9z"/>
<path class="st1" d="M615.5,952.7c0.3,17.6-4.1,75-15.5,100.3c-18.9,41.8-15.1,55.7,16.8,10.9C634,1039.7,615.4,944.9,615.5,952.7z"
	/>
<polygon class="st6" points="610.2,595.7 610.1,596.9 618,595.6 630.5,599.9 638.4,607.8 640.4,609.8 640.9,608.6 641.5,608.3 
	632.2,598.3 621,593.5 613.5,593.9 "/>
<polygon class="st6" points="615.4,635.9 615,649.2 635,648.7 636,633.9 "/>
<path class="st6" d="M583.7,859.1l3.6,9l14.8,11.4l14.3-6.2l11.8,6l10-1.5l1.8-5.9l3.3-1l22.2-1.1l-1.7-14.7l-18-4.5l-14.9-1.9
	C612.6,851.4,599.9,854.3,583.7,859.1z"/>
<polygon class="st6" points="690.1,871.4 716.8,875.3 703.5,894.3 752.2,917.1 761.7,888.8 776.3,894.1 776.3,882.3 733.9,867.1 
	702.4,855 687.6,859 "/>
<path class="st1" d="M747.4,889.4c-7,16.1-34.8,66.6-55.7,84.8c-34.5,30.2-36.8,44.5,10.8,16.9C728.1,976.3,750.5,882.3,747.4,889.4
	z"/>
</svg>
